%TF.GenerationSoftware,KiCad,Pcbnew,(7.0.0-0)*%
%TF.CreationDate,2023-06-05T18:59:05+10:00*%
%TF.ProjectId,trone,74726f6e-652e-46b6-9963-61645f706362,v1.0.0*%
%TF.SameCoordinates,Original*%
%TF.FileFunction,Legend,Bot*%
%TF.FilePolarity,Positive*%
%FSLAX46Y46*%
G04 Gerber Fmt 4.6, Leading zero omitted, Abs format (unit mm)*
G04 Created by KiCad (PCBNEW (7.0.0-0)) date 2023-06-05 18:59:05*
%MOMM*%
%LPD*%
G01*
G04 APERTURE LIST*
%ADD10C,0.100000*%
%ADD11R,1.752600X1.752600*%
%ADD12C,1.752600*%
G04 APERTURE END LIST*
D10*
%TO.C,D18*%
X216604635Y-175054275D02*
X216998558Y-174984816D01*
X216998558Y-174984816D02*
X216903052Y-174443172D01*
X216998558Y-174984816D02*
X217094065Y-175526460D01*
X216998558Y-174984816D02*
X217519984Y-174486704D01*
X217519984Y-174486704D02*
X217658902Y-175274550D01*
X217589443Y-174880627D02*
X218081847Y-174793803D01*
X217658902Y-175274550D02*
X216998558Y-174984816D01*
%TO.C,D15*%
X244250000Y-153092500D02*
X244650000Y-153092500D01*
X244650000Y-153092500D02*
X244650000Y-152542500D01*
X244650000Y-153092500D02*
X244650000Y-153642500D01*
X244650000Y-153092500D02*
X245250000Y-152692500D01*
X245250000Y-152692500D02*
X245250000Y-153492500D01*
X245250000Y-153092500D02*
X245750000Y-153092500D01*
X245250000Y-153492500D02*
X244650000Y-153092500D01*
%TO.C,D16*%
X244250000Y-134092500D02*
X244650000Y-134092500D01*
X244650000Y-134092500D02*
X244650000Y-133542500D01*
X244650000Y-134092500D02*
X244650000Y-134642500D01*
X244650000Y-134092500D02*
X245250000Y-133692500D01*
X245250000Y-133692500D02*
X245250000Y-134492500D01*
X245250000Y-134092500D02*
X245750000Y-134092500D01*
X245250000Y-134492500D02*
X244650000Y-134092500D01*
%TO.C,D4*%
X168250000Y-144570000D02*
X168650000Y-144570000D01*
X168650000Y-144570000D02*
X168650000Y-144020000D01*
X168650000Y-144570000D02*
X168650000Y-145120000D01*
X168650000Y-144570000D02*
X169250000Y-144170000D01*
X169250000Y-144170000D02*
X169250000Y-144970000D01*
X169250000Y-144570000D02*
X169750000Y-144570000D01*
X169250000Y-144970000D02*
X168650000Y-144570000D01*
%TO.C,D7*%
X187250000Y-131235000D02*
X187650000Y-131235000D01*
X187650000Y-131235000D02*
X187650000Y-130685000D01*
X187650000Y-131235000D02*
X187650000Y-131785000D01*
X187650000Y-131235000D02*
X188250000Y-130835000D01*
X188250000Y-130835000D02*
X188250000Y-131635000D01*
X188250000Y-131235000D02*
X188750000Y-131235000D01*
X188250000Y-131635000D02*
X187650000Y-131235000D01*
%TO.C,D5*%
X168250000Y-125570000D02*
X168650000Y-125570000D01*
X168650000Y-125570000D02*
X168650000Y-125020000D01*
X168650000Y-125570000D02*
X168650000Y-126120000D01*
X168650000Y-125570000D02*
X169250000Y-125170000D01*
X169250000Y-125170000D02*
X169250000Y-125970000D01*
X169250000Y-125570000D02*
X169750000Y-125570000D01*
X169250000Y-125970000D02*
X168650000Y-125570000D01*
%TO.C,D6*%
X187250000Y-150235000D02*
X187650000Y-150235000D01*
X187650000Y-150235000D02*
X187650000Y-149685000D01*
X187650000Y-150235000D02*
X187650000Y-150785000D01*
X187650000Y-150235000D02*
X188250000Y-149835000D01*
X188250000Y-149835000D02*
X188250000Y-150635000D01*
X188250000Y-150235000D02*
X188750000Y-150235000D01*
X188250000Y-150635000D02*
X187650000Y-150235000D01*
%TO.C,D8*%
X187250000Y-112235000D02*
X187650000Y-112235000D01*
X187650000Y-112235000D02*
X187650000Y-111685000D01*
X187650000Y-112235000D02*
X187650000Y-112785000D01*
X187650000Y-112235000D02*
X188250000Y-111835000D01*
X188250000Y-111835000D02*
X188250000Y-112635000D01*
X188250000Y-112235000D02*
X188750000Y-112235000D01*
X188250000Y-112635000D02*
X187650000Y-112235000D01*
%TO.C,D3*%
X168250000Y-163570000D02*
X168650000Y-163570000D01*
X168650000Y-163570000D02*
X168650000Y-163020000D01*
X168650000Y-163570000D02*
X168650000Y-164120000D01*
X168650000Y-163570000D02*
X169250000Y-163170000D01*
X169250000Y-163170000D02*
X169250000Y-163970000D01*
X169250000Y-163570000D02*
X169750000Y-163570000D01*
X169250000Y-163970000D02*
X168650000Y-163570000D01*
%TO.C,D20*%
X259489224Y-172483590D02*
X259851747Y-172652638D01*
X259851747Y-172652638D02*
X260084187Y-172154168D01*
X259851747Y-172652638D02*
X259619307Y-173151107D01*
X259851747Y-172652638D02*
X260564579Y-172543685D01*
X260564579Y-172543685D02*
X260226485Y-173268732D01*
X260395532Y-172906209D02*
X260848686Y-173117518D01*
X260226485Y-173268732D02*
X259851747Y-172652638D01*
%TO.C,D10*%
X206250000Y-126472500D02*
X206650000Y-126472500D01*
X206650000Y-126472500D02*
X206650000Y-125922500D01*
X206650000Y-126472500D02*
X206650000Y-127022500D01*
X206650000Y-126472500D02*
X207250000Y-126072500D01*
X207250000Y-126072500D02*
X207250000Y-126872500D01*
X207250000Y-126472500D02*
X207750000Y-126472500D01*
X207250000Y-126872500D02*
X206650000Y-126472500D01*
%TO.C,D11*%
X206250000Y-107472500D02*
X206650000Y-107472500D01*
X206650000Y-107472500D02*
X206650000Y-106922500D01*
X206650000Y-107472500D02*
X206650000Y-108022500D01*
X206650000Y-107472500D02*
X207250000Y-107072500D01*
X207250000Y-107072500D02*
X207250000Y-107872500D01*
X207250000Y-107472500D02*
X207750000Y-107472500D01*
X207250000Y-107872500D02*
X206650000Y-107472500D01*
%TO.C,D9*%
X206250000Y-145472500D02*
X206650000Y-145472500D01*
X206650000Y-145472500D02*
X206650000Y-144922500D01*
X206650000Y-145472500D02*
X206650000Y-146022500D01*
X206650000Y-145472500D02*
X207250000Y-145072500D01*
X207250000Y-145072500D02*
X207250000Y-145872500D01*
X207250000Y-145472500D02*
X207750000Y-145472500D01*
X207250000Y-145872500D02*
X206650000Y-145472500D01*
%TO.C,D17*%
X244250000Y-115092500D02*
X244650000Y-115092500D01*
X244650000Y-115092500D02*
X244650000Y-114542500D01*
X244650000Y-115092500D02*
X244650000Y-115642500D01*
X244650000Y-115092500D02*
X245250000Y-114692500D01*
X245250000Y-114692500D02*
X245250000Y-115492500D01*
X245250000Y-115092500D02*
X245750000Y-115092500D01*
X245250000Y-115492500D02*
X244650000Y-115092500D01*
%TO.C,D14*%
X225250000Y-112235000D02*
X225650000Y-112235000D01*
X225650000Y-112235000D02*
X225650000Y-111685000D01*
X225650000Y-112235000D02*
X225650000Y-112785000D01*
X225650000Y-112235000D02*
X226250000Y-111835000D01*
X226250000Y-111835000D02*
X226250000Y-112635000D01*
X226250000Y-112235000D02*
X226750000Y-112235000D01*
X226250000Y-112635000D02*
X225650000Y-112235000D01*
%TO.C,D19*%
X236936347Y-173200685D02*
X237336347Y-173200685D01*
X237336347Y-173200685D02*
X237336347Y-172650685D01*
X237336347Y-173200685D02*
X237336347Y-173750685D01*
X237336347Y-173200685D02*
X237936347Y-172800685D01*
X237936347Y-172800685D02*
X237936347Y-173600685D01*
X237936347Y-173200685D02*
X238436347Y-173200685D01*
X237936347Y-173600685D02*
X237336347Y-173200685D01*
%TO.C,D2*%
X149250000Y-137000000D02*
X149650000Y-137000000D01*
X149650000Y-137000000D02*
X149650000Y-136450000D01*
X149650000Y-137000000D02*
X149650000Y-137550000D01*
X149650000Y-137000000D02*
X150250000Y-136600000D01*
X150250000Y-136600000D02*
X150250000Y-137400000D01*
X150250000Y-137000000D02*
X150750000Y-137000000D01*
X150250000Y-137400000D02*
X149650000Y-137000000D01*
%TO.C,D12*%
X225250000Y-150235000D02*
X225650000Y-150235000D01*
X225650000Y-150235000D02*
X225650000Y-149685000D01*
X225650000Y-150235000D02*
X225650000Y-150785000D01*
X225650000Y-150235000D02*
X226250000Y-149835000D01*
X226250000Y-149835000D02*
X226250000Y-150635000D01*
X226250000Y-150235000D02*
X226750000Y-150235000D01*
X226250000Y-150635000D02*
X225650000Y-150235000D01*
%TO.C,D13*%
X225250000Y-131235000D02*
X225650000Y-131235000D01*
X225650000Y-131235000D02*
X225650000Y-130685000D01*
X225650000Y-131235000D02*
X225650000Y-131785000D01*
X225650000Y-131235000D02*
X226250000Y-130835000D01*
X226250000Y-130835000D02*
X226250000Y-131635000D01*
X226250000Y-131235000D02*
X226750000Y-131235000D01*
X226250000Y-131635000D02*
X225650000Y-131235000D01*
%TO.C,D1*%
X149250000Y-156000000D02*
X149650000Y-156000000D01*
X149650000Y-156000000D02*
X149650000Y-155450000D01*
X149650000Y-156000000D02*
X149650000Y-156550000D01*
X149650000Y-156000000D02*
X150250000Y-155600000D01*
X150250000Y-155600000D02*
X150250000Y-156400000D01*
X150250000Y-156000000D02*
X150750000Y-156000000D01*
X150250000Y-156400000D02*
X149650000Y-156000000D01*
%TD*%
D11*
%TO.C,MCU1*%
X256379999Y-114622499D03*
D12*
X256380000Y-117162500D03*
X256380000Y-119702500D03*
X256380000Y-122242500D03*
X256380000Y-124782500D03*
X256380000Y-127322500D03*
X256380000Y-129862500D03*
X256380000Y-132402500D03*
X256380000Y-134942500D03*
X256380000Y-137482500D03*
X256380000Y-140022500D03*
X256380000Y-142562500D03*
X271620000Y-114622500D03*
X271620000Y-117162500D03*
X271620000Y-119702500D03*
X271620000Y-122242500D03*
X271620000Y-124782500D03*
X271620000Y-127322500D03*
X271620000Y-129862500D03*
X271620000Y-132402500D03*
X271620000Y-134942500D03*
X271620000Y-137482500D03*
X271620000Y-140022500D03*
X271620000Y-142562500D03*
%TD*%
M02*
