M48
; DRILL file {KiCad (7.0.0-0)} date Monday, 05 June 2023 at 07:00:46 PM
; FORMAT={-:-/ absolute / metric / decimal}
; #@! TF.CreationDate,2023-06-05T19:00:46+10:00
; #@! TF.GenerationSoftware,Kicad,Pcbnew,(7.0.0-0)
; #@! TF.FileFunction,NonPlated,1,2,NPTH
FMAT,2
METRIC
; #@! TA.AperFunction,NonPlated,NPTH,ComponentDrill
T1C0.650
; #@! TA.AperFunction,NonPlated,NPTH,ComponentDrill
T2C1.702
; #@! TA.AperFunction,NonPlated,NPTH,ComponentDrill
T3C3.988
%
G90
G05
T1
X262.567Y-147.2
X262.567Y-147.5
X262.567Y-154.55
T2
X144.92Y-132.0
X144.92Y-151.0
X155.08Y-132.0
X155.08Y-151.0
X163.92Y-120.57
X163.92Y-139.57
X163.92Y-158.57
X174.08Y-120.57
X174.08Y-139.57
X174.08Y-158.57
X182.92Y-107.235
X182.92Y-126.235
X182.92Y-145.235
X193.08Y-107.235
X193.08Y-126.235
X193.08Y-145.235
X201.92Y-102.472
X201.92Y-121.472
X201.92Y-140.472
X211.472Y-170.882
X212.08Y-102.472
X212.08Y-121.472
X212.08Y-140.472
X220.92Y-107.235
X220.92Y-126.235
X220.92Y-145.235
X221.478Y-169.118
X231.08Y-107.235
X231.08Y-126.235
X231.08Y-145.235
X232.606Y-168.201
X239.92Y-110.093
X239.92Y-129.093
X239.92Y-148.093
X242.766Y-168.201
X250.08Y-110.093
X250.08Y-129.093
X250.08Y-148.093
X257.678Y-166.122
X266.886Y-170.416
T3
X150.0Y-132.0
X150.0Y-151.0
X169.0Y-120.57
X169.0Y-139.57
X169.0Y-158.57
X188.0Y-107.235
X188.0Y-126.235
X188.0Y-145.235
X207.0Y-102.472
X207.0Y-121.472
X207.0Y-140.472
X216.475Y-170.0
X226.0Y-107.235
X226.0Y-126.235
X226.0Y-145.235
X237.686Y-168.201
X245.0Y-110.093
X245.0Y-129.093
X245.0Y-148.093
X262.282Y-168.269
T0
M30
