M48
; DRILL file {KiCad (7.0.0-0)} date Monday, 05 June 2023 at 07:00:46 PM
; FORMAT={-:-/ absolute / metric / decimal}
; #@! TF.CreationDate,2023-06-05T19:00:46+10:00
; #@! TF.GenerationSoftware,Kicad,Pcbnew,(7.0.0-0)
; #@! TF.FileFunction,Plated,1,2,PTH
FMAT,2
METRIC
; #@! TA.AperFunction,Plated,PTH,ComponentDrill
T1C0.400
; #@! TA.AperFunction,Plated,PTH,ComponentDrill
T2C0.500
; #@! TA.AperFunction,Plated,PTH,ComponentDrill
T3C0.762
; #@! TA.AperFunction,Plated,PTH,ComponentDrill
T4C0.991
; #@! TA.AperFunction,Plated,PTH,ComponentDrill
T5C1.092
; #@! TA.AperFunction,Plated,PTH,ComponentDrill
T6C1.499
%
G90
G05
T1
X263.217Y-148.15
X263.217Y-149.75
X263.217Y-150.55
X263.217Y-151.35
X263.217Y-152.15
X263.217Y-153.75
X263.917Y-148.55
X263.917Y-149.35
X263.917Y-150.15
X263.917Y-151.75
X263.917Y-152.55
X263.917Y-153.35
T3
X269.08Y-132.403
X269.08Y-134.942
X269.08Y-137.482
X269.08Y-140.022
X269.08Y-142.562
T4
X146.19Y-137.0
X146.19Y-156.0
X153.81Y-137.0
X153.81Y-156.0
X165.19Y-125.57
X165.19Y-144.57
X165.19Y-163.57
X172.81Y-125.57
X172.81Y-144.57
X172.81Y-163.57
X184.19Y-112.235
X184.19Y-131.235
X184.19Y-150.235
X191.81Y-112.235
X191.81Y-131.235
X191.81Y-150.235
X203.19Y-107.472
X203.19Y-126.472
X203.19Y-145.472
X210.81Y-107.472
X210.81Y-126.472
X210.81Y-145.472
X213.591Y-175.586
X221.095Y-174.262
X222.19Y-112.235
X222.19Y-131.235
X222.19Y-150.235
X229.81Y-112.235
X229.81Y-131.235
X229.81Y-150.235
X233.876Y-173.201
X241.19Y-115.093
X241.19Y-134.093
X241.19Y-153.093
X241.496Y-173.201
X248.81Y-115.093
X248.81Y-134.093
X248.81Y-153.093
X256.716Y-171.19
X263.622Y-174.411
T5
X256.38Y-114.622
X256.38Y-117.162
X256.38Y-119.703
X256.38Y-122.242
X256.38Y-124.782
X256.38Y-127.322
X256.38Y-129.862
X256.38Y-132.403
X256.38Y-134.942
X256.38Y-137.482
X256.38Y-140.022
X256.38Y-142.562
X271.62Y-114.622
X271.62Y-117.162
X271.62Y-119.703
X271.62Y-122.242
X271.62Y-124.782
X271.62Y-127.322
X271.62Y-129.862
X271.62Y-132.403
X271.62Y-134.942
X271.62Y-137.482
X271.62Y-140.022
X271.62Y-142.562
T6
X146.19Y-129.46
X146.19Y-148.46
X147.46Y-126.92
X147.46Y-145.92
X152.54Y-126.92
X152.54Y-145.92
X153.81Y-129.46
X153.81Y-148.46
X165.19Y-118.03
X165.19Y-137.03
X165.19Y-156.03
X166.46Y-115.49
X166.46Y-134.49
X166.46Y-153.49
X171.54Y-115.49
X171.54Y-134.49
X171.54Y-153.49
X172.81Y-118.03
X172.81Y-137.03
X172.81Y-156.03
X184.19Y-104.695
X184.19Y-123.695
X184.19Y-142.695
X185.46Y-102.155
X185.46Y-121.155
X185.46Y-140.155
X190.54Y-102.155
X190.54Y-121.155
X190.54Y-140.155
X191.81Y-104.695
X191.81Y-123.695
X191.81Y-142.695
X203.19Y-99.932
X203.19Y-118.932
X203.19Y-137.933
X204.46Y-97.392
X204.46Y-116.392
X204.46Y-135.392
X209.54Y-97.392
X209.54Y-116.392
X209.54Y-135.392
X210.81Y-99.932
X210.81Y-118.932
X210.81Y-137.933
X212.282Y-168.16
X213.091Y-165.438
X218.094Y-164.556
X219.786Y-166.837
X222.19Y-104.695
X222.19Y-123.695
X222.19Y-142.695
X223.46Y-102.155
X223.46Y-121.155
X223.46Y-140.155
X228.54Y-102.155
X228.54Y-121.155
X228.54Y-140.155
X229.81Y-104.695
X229.81Y-123.695
X229.81Y-142.695
X233.876Y-165.661
X235.146Y-163.121
X240.226Y-163.121
X241.19Y-107.552
X241.19Y-126.552
X241.19Y-145.552
X241.496Y-165.661
X242.46Y-105.012
X242.46Y-124.012
X242.46Y-143.012
X247.54Y-105.012
X247.54Y-124.012
X247.54Y-143.012
X248.81Y-107.552
X248.81Y-126.552
X248.81Y-145.552
X259.902Y-164.357
X262.127Y-162.592
X266.731Y-164.738
X266.809Y-167.577
T2
X263.817Y-146.52G85X263.817Y-147.12
G05
X263.817Y-154.78G85X263.817Y-155.38
G05
X269.767Y-146.16G85X269.767Y-146.76
G05
X269.767Y-155.14G85X269.767Y-155.74
G05
T0
M30
