%TF.GenerationSoftware,KiCad,Pcbnew,(7.0.0-0)*%
%TF.CreationDate,2023-06-05T18:59:05+10:00*%
%TF.ProjectId,trone,74726f6e-652e-46b6-9963-61645f706362,v1.0.0*%
%TF.SameCoordinates,Original*%
%TF.FileFunction,Legend,Top*%
%TF.FilePolarity,Positive*%
%FSLAX46Y46*%
G04 Gerber Fmt 4.6, Leading zero omitted, Abs format (unit mm)*
G04 Created by KiCad (PCBNEW (7.0.0-0)) date 2023-06-05 18:59:05*
%MOMM*%
%LPD*%
G01*
G04 APERTURE LIST*
%ADD10C,0.150000*%
%ADD11C,0.100000*%
%ADD12C,0.127000*%
%ADD13R,1.752600X1.752600*%
%ADD14C,1.752600*%
G04 APERTURE END LIST*
D10*
%TO.C,MCU1*%
X258228571Y-135236404D02*
X258228571Y-134436404D01*
X258228571Y-134436404D02*
X258533333Y-134436404D01*
X258533333Y-134436404D02*
X258609523Y-134474500D01*
X258609523Y-134474500D02*
X258647618Y-134512595D01*
X258647618Y-134512595D02*
X258685714Y-134588785D01*
X258685714Y-134588785D02*
X258685714Y-134703071D01*
X258685714Y-134703071D02*
X258647618Y-134779261D01*
X258647618Y-134779261D02*
X258609523Y-134817357D01*
X258609523Y-134817357D02*
X258533333Y-134855452D01*
X258533333Y-134855452D02*
X258228571Y-134855452D01*
X259447618Y-135236404D02*
X258990475Y-135236404D01*
X259219047Y-135236404D02*
X259219047Y-134436404D01*
X259219047Y-134436404D02*
X259142856Y-134550690D01*
X259142856Y-134550690D02*
X259066666Y-134626880D01*
X259066666Y-134626880D02*
X258990475Y-134664976D01*
X260171428Y-134436404D02*
X259790476Y-134436404D01*
X259790476Y-134436404D02*
X259752380Y-134817357D01*
X259752380Y-134817357D02*
X259790476Y-134779261D01*
X259790476Y-134779261D02*
X259866666Y-134741166D01*
X259866666Y-134741166D02*
X260057142Y-134741166D01*
X260057142Y-134741166D02*
X260133333Y-134779261D01*
X260133333Y-134779261D02*
X260171428Y-134817357D01*
X260171428Y-134817357D02*
X260209523Y-134893547D01*
X260209523Y-134893547D02*
X260209523Y-135084023D01*
X260209523Y-135084023D02*
X260171428Y-135160214D01*
X260171428Y-135160214D02*
X260133333Y-135198309D01*
X260133333Y-135198309D02*
X260057142Y-135236404D01*
X260057142Y-135236404D02*
X259866666Y-135236404D01*
X259866666Y-135236404D02*
X259790476Y-135198309D01*
X259790476Y-135198309D02*
X259752380Y-135160214D01*
X267828571Y-135236404D02*
X267828571Y-134436404D01*
X267828571Y-134436404D02*
X268133333Y-134436404D01*
X268133333Y-134436404D02*
X268209523Y-134474500D01*
X268209523Y-134474500D02*
X268247618Y-134512595D01*
X268247618Y-134512595D02*
X268285714Y-134588785D01*
X268285714Y-134588785D02*
X268285714Y-134703071D01*
X268285714Y-134703071D02*
X268247618Y-134779261D01*
X268247618Y-134779261D02*
X268209523Y-134817357D01*
X268209523Y-134817357D02*
X268133333Y-134855452D01*
X268133333Y-134855452D02*
X267828571Y-134855452D01*
X268780952Y-134436404D02*
X268857142Y-134436404D01*
X268857142Y-134436404D02*
X268933333Y-134474500D01*
X268933333Y-134474500D02*
X268971428Y-134512595D01*
X268971428Y-134512595D02*
X269009523Y-134588785D01*
X269009523Y-134588785D02*
X269047618Y-134741166D01*
X269047618Y-134741166D02*
X269047618Y-134931642D01*
X269047618Y-134931642D02*
X269009523Y-135084023D01*
X269009523Y-135084023D02*
X268971428Y-135160214D01*
X268971428Y-135160214D02*
X268933333Y-135198309D01*
X268933333Y-135198309D02*
X268857142Y-135236404D01*
X268857142Y-135236404D02*
X268780952Y-135236404D01*
X268780952Y-135236404D02*
X268704761Y-135198309D01*
X268704761Y-135198309D02*
X268666666Y-135160214D01*
X268666666Y-135160214D02*
X268628571Y-135084023D01*
X268628571Y-135084023D02*
X268590475Y-134931642D01*
X268590475Y-134931642D02*
X268590475Y-134741166D01*
X268590475Y-134741166D02*
X268628571Y-134588785D01*
X268628571Y-134588785D02*
X268666666Y-134512595D01*
X268666666Y-134512595D02*
X268704761Y-134474500D01*
X268704761Y-134474500D02*
X268780952Y-134436404D01*
X269733333Y-134436404D02*
X269580952Y-134436404D01*
X269580952Y-134436404D02*
X269504761Y-134474500D01*
X269504761Y-134474500D02*
X269466666Y-134512595D01*
X269466666Y-134512595D02*
X269390476Y-134626880D01*
X269390476Y-134626880D02*
X269352380Y-134779261D01*
X269352380Y-134779261D02*
X269352380Y-135084023D01*
X269352380Y-135084023D02*
X269390476Y-135160214D01*
X269390476Y-135160214D02*
X269428571Y-135198309D01*
X269428571Y-135198309D02*
X269504761Y-135236404D01*
X269504761Y-135236404D02*
X269657142Y-135236404D01*
X269657142Y-135236404D02*
X269733333Y-135198309D01*
X269733333Y-135198309D02*
X269771428Y-135160214D01*
X269771428Y-135160214D02*
X269809523Y-135084023D01*
X269809523Y-135084023D02*
X269809523Y-134893547D01*
X269809523Y-134893547D02*
X269771428Y-134817357D01*
X269771428Y-134817357D02*
X269733333Y-134779261D01*
X269733333Y-134779261D02*
X269657142Y-134741166D01*
X269657142Y-134741166D02*
X269504761Y-134741166D01*
X269504761Y-134741166D02*
X269428571Y-134779261D01*
X269428571Y-134779261D02*
X269390476Y-134817357D01*
X269390476Y-134817357D02*
X269352380Y-134893547D01*
X267828571Y-114916404D02*
X267828571Y-114116404D01*
X267828571Y-114116404D02*
X268133333Y-114116404D01*
X268133333Y-114116404D02*
X268209523Y-114154500D01*
X268209523Y-114154500D02*
X268247618Y-114192595D01*
X268247618Y-114192595D02*
X268285714Y-114268785D01*
X268285714Y-114268785D02*
X268285714Y-114383071D01*
X268285714Y-114383071D02*
X268247618Y-114459261D01*
X268247618Y-114459261D02*
X268209523Y-114497357D01*
X268209523Y-114497357D02*
X268133333Y-114535452D01*
X268133333Y-114535452D02*
X267828571Y-114535452D01*
X268780952Y-114116404D02*
X268857142Y-114116404D01*
X268857142Y-114116404D02*
X268933333Y-114154500D01*
X268933333Y-114154500D02*
X268971428Y-114192595D01*
X268971428Y-114192595D02*
X269009523Y-114268785D01*
X269009523Y-114268785D02*
X269047618Y-114421166D01*
X269047618Y-114421166D02*
X269047618Y-114611642D01*
X269047618Y-114611642D02*
X269009523Y-114764023D01*
X269009523Y-114764023D02*
X268971428Y-114840214D01*
X268971428Y-114840214D02*
X268933333Y-114878309D01*
X268933333Y-114878309D02*
X268857142Y-114916404D01*
X268857142Y-114916404D02*
X268780952Y-114916404D01*
X268780952Y-114916404D02*
X268704761Y-114878309D01*
X268704761Y-114878309D02*
X268666666Y-114840214D01*
X268666666Y-114840214D02*
X268628571Y-114764023D01*
X268628571Y-114764023D02*
X268590475Y-114611642D01*
X268590475Y-114611642D02*
X268590475Y-114421166D01*
X268590475Y-114421166D02*
X268628571Y-114268785D01*
X268628571Y-114268785D02*
X268666666Y-114192595D01*
X268666666Y-114192595D02*
X268704761Y-114154500D01*
X268704761Y-114154500D02*
X268780952Y-114116404D01*
X269809523Y-114916404D02*
X269352380Y-114916404D01*
X269580952Y-114916404D02*
X269580952Y-114116404D01*
X269580952Y-114116404D02*
X269504761Y-114230690D01*
X269504761Y-114230690D02*
X269428571Y-114306880D01*
X269428571Y-114306880D02*
X269352380Y-114344976D01*
X267828571Y-140316404D02*
X267828571Y-139516404D01*
X267828571Y-139516404D02*
X268133333Y-139516404D01*
X268133333Y-139516404D02*
X268209523Y-139554500D01*
X268209523Y-139554500D02*
X268247618Y-139592595D01*
X268247618Y-139592595D02*
X268285714Y-139668785D01*
X268285714Y-139668785D02*
X268285714Y-139783071D01*
X268285714Y-139783071D02*
X268247618Y-139859261D01*
X268247618Y-139859261D02*
X268209523Y-139897357D01*
X268209523Y-139897357D02*
X268133333Y-139935452D01*
X268133333Y-139935452D02*
X267828571Y-139935452D01*
X268780952Y-139516404D02*
X268857142Y-139516404D01*
X268857142Y-139516404D02*
X268933333Y-139554500D01*
X268933333Y-139554500D02*
X268971428Y-139592595D01*
X268971428Y-139592595D02*
X269009523Y-139668785D01*
X269009523Y-139668785D02*
X269047618Y-139821166D01*
X269047618Y-139821166D02*
X269047618Y-140011642D01*
X269047618Y-140011642D02*
X269009523Y-140164023D01*
X269009523Y-140164023D02*
X268971428Y-140240214D01*
X268971428Y-140240214D02*
X268933333Y-140278309D01*
X268933333Y-140278309D02*
X268857142Y-140316404D01*
X268857142Y-140316404D02*
X268780952Y-140316404D01*
X268780952Y-140316404D02*
X268704761Y-140278309D01*
X268704761Y-140278309D02*
X268666666Y-140240214D01*
X268666666Y-140240214D02*
X268628571Y-140164023D01*
X268628571Y-140164023D02*
X268590475Y-140011642D01*
X268590475Y-140011642D02*
X268590475Y-139821166D01*
X268590475Y-139821166D02*
X268628571Y-139668785D01*
X268628571Y-139668785D02*
X268666666Y-139592595D01*
X268666666Y-139592595D02*
X268704761Y-139554500D01*
X268704761Y-139554500D02*
X268780952Y-139516404D01*
X269504761Y-139859261D02*
X269428571Y-139821166D01*
X269428571Y-139821166D02*
X269390476Y-139783071D01*
X269390476Y-139783071D02*
X269352380Y-139706880D01*
X269352380Y-139706880D02*
X269352380Y-139668785D01*
X269352380Y-139668785D02*
X269390476Y-139592595D01*
X269390476Y-139592595D02*
X269428571Y-139554500D01*
X269428571Y-139554500D02*
X269504761Y-139516404D01*
X269504761Y-139516404D02*
X269657142Y-139516404D01*
X269657142Y-139516404D02*
X269733333Y-139554500D01*
X269733333Y-139554500D02*
X269771428Y-139592595D01*
X269771428Y-139592595D02*
X269809523Y-139668785D01*
X269809523Y-139668785D02*
X269809523Y-139706880D01*
X269809523Y-139706880D02*
X269771428Y-139783071D01*
X269771428Y-139783071D02*
X269733333Y-139821166D01*
X269733333Y-139821166D02*
X269657142Y-139859261D01*
X269657142Y-139859261D02*
X269504761Y-139859261D01*
X269504761Y-139859261D02*
X269428571Y-139897357D01*
X269428571Y-139897357D02*
X269390476Y-139935452D01*
X269390476Y-139935452D02*
X269352380Y-140011642D01*
X269352380Y-140011642D02*
X269352380Y-140164023D01*
X269352380Y-140164023D02*
X269390476Y-140240214D01*
X269390476Y-140240214D02*
X269428571Y-140278309D01*
X269428571Y-140278309D02*
X269504761Y-140316404D01*
X269504761Y-140316404D02*
X269657142Y-140316404D01*
X269657142Y-140316404D02*
X269733333Y-140278309D01*
X269733333Y-140278309D02*
X269771428Y-140240214D01*
X269771428Y-140240214D02*
X269809523Y-140164023D01*
X269809523Y-140164023D02*
X269809523Y-140011642D01*
X269809523Y-140011642D02*
X269771428Y-139935452D01*
X269771428Y-139935452D02*
X269733333Y-139897357D01*
X269733333Y-139897357D02*
X269657142Y-139859261D01*
X258590476Y-116694500D02*
X258514286Y-116656404D01*
X258514286Y-116656404D02*
X258400000Y-116656404D01*
X258400000Y-116656404D02*
X258285714Y-116694500D01*
X258285714Y-116694500D02*
X258209524Y-116770690D01*
X258209524Y-116770690D02*
X258171429Y-116846880D01*
X258171429Y-116846880D02*
X258133333Y-116999261D01*
X258133333Y-116999261D02*
X258133333Y-117113547D01*
X258133333Y-117113547D02*
X258171429Y-117265928D01*
X258171429Y-117265928D02*
X258209524Y-117342119D01*
X258209524Y-117342119D02*
X258285714Y-117418309D01*
X258285714Y-117418309D02*
X258400000Y-117456404D01*
X258400000Y-117456404D02*
X258476191Y-117456404D01*
X258476191Y-117456404D02*
X258590476Y-117418309D01*
X258590476Y-117418309D02*
X258628572Y-117380214D01*
X258628572Y-117380214D02*
X258628572Y-117113547D01*
X258628572Y-117113547D02*
X258476191Y-117113547D01*
X258971429Y-117456404D02*
X258971429Y-116656404D01*
X258971429Y-116656404D02*
X259428572Y-117456404D01*
X259428572Y-117456404D02*
X259428572Y-116656404D01*
X259809524Y-117456404D02*
X259809524Y-116656404D01*
X259809524Y-116656404D02*
X260000000Y-116656404D01*
X260000000Y-116656404D02*
X260114286Y-116694500D01*
X260114286Y-116694500D02*
X260190476Y-116770690D01*
X260190476Y-116770690D02*
X260228571Y-116846880D01*
X260228571Y-116846880D02*
X260266667Y-116999261D01*
X260266667Y-116999261D02*
X260266667Y-117113547D01*
X260266667Y-117113547D02*
X260228571Y-117265928D01*
X260228571Y-117265928D02*
X260190476Y-117342119D01*
X260190476Y-117342119D02*
X260114286Y-117418309D01*
X260114286Y-117418309D02*
X260000000Y-117456404D01*
X260000000Y-117456404D02*
X259809524Y-117456404D01*
X258228571Y-127616404D02*
X258228571Y-126816404D01*
X258228571Y-126816404D02*
X258533333Y-126816404D01*
X258533333Y-126816404D02*
X258609523Y-126854500D01*
X258609523Y-126854500D02*
X258647618Y-126892595D01*
X258647618Y-126892595D02*
X258685714Y-126968785D01*
X258685714Y-126968785D02*
X258685714Y-127083071D01*
X258685714Y-127083071D02*
X258647618Y-127159261D01*
X258647618Y-127159261D02*
X258609523Y-127197357D01*
X258609523Y-127197357D02*
X258533333Y-127235452D01*
X258533333Y-127235452D02*
X258228571Y-127235452D01*
X258990475Y-126892595D02*
X259028571Y-126854500D01*
X259028571Y-126854500D02*
X259104761Y-126816404D01*
X259104761Y-126816404D02*
X259295237Y-126816404D01*
X259295237Y-126816404D02*
X259371428Y-126854500D01*
X259371428Y-126854500D02*
X259409523Y-126892595D01*
X259409523Y-126892595D02*
X259447618Y-126968785D01*
X259447618Y-126968785D02*
X259447618Y-127044976D01*
X259447618Y-127044976D02*
X259409523Y-127159261D01*
X259409523Y-127159261D02*
X258952380Y-127616404D01*
X258952380Y-127616404D02*
X259447618Y-127616404D01*
X259942857Y-126816404D02*
X260019047Y-126816404D01*
X260019047Y-126816404D02*
X260095238Y-126854500D01*
X260095238Y-126854500D02*
X260133333Y-126892595D01*
X260133333Y-126892595D02*
X260171428Y-126968785D01*
X260171428Y-126968785D02*
X260209523Y-127121166D01*
X260209523Y-127121166D02*
X260209523Y-127311642D01*
X260209523Y-127311642D02*
X260171428Y-127464023D01*
X260171428Y-127464023D02*
X260133333Y-127540214D01*
X260133333Y-127540214D02*
X260095238Y-127578309D01*
X260095238Y-127578309D02*
X260019047Y-127616404D01*
X260019047Y-127616404D02*
X259942857Y-127616404D01*
X259942857Y-127616404D02*
X259866666Y-127578309D01*
X259866666Y-127578309D02*
X259828571Y-127540214D01*
X259828571Y-127540214D02*
X259790476Y-127464023D01*
X259790476Y-127464023D02*
X259752380Y-127311642D01*
X259752380Y-127311642D02*
X259752380Y-127121166D01*
X259752380Y-127121166D02*
X259790476Y-126968785D01*
X259790476Y-126968785D02*
X259828571Y-126892595D01*
X259828571Y-126892595D02*
X259866666Y-126854500D01*
X259866666Y-126854500D02*
X259942857Y-126816404D01*
X258647619Y-114916404D02*
X258380952Y-114535452D01*
X258190476Y-114916404D02*
X258190476Y-114116404D01*
X258190476Y-114116404D02*
X258495238Y-114116404D01*
X258495238Y-114116404D02*
X258571428Y-114154500D01*
X258571428Y-114154500D02*
X258609523Y-114192595D01*
X258609523Y-114192595D02*
X258647619Y-114268785D01*
X258647619Y-114268785D02*
X258647619Y-114383071D01*
X258647619Y-114383071D02*
X258609523Y-114459261D01*
X258609523Y-114459261D02*
X258571428Y-114497357D01*
X258571428Y-114497357D02*
X258495238Y-114535452D01*
X258495238Y-114535452D02*
X258190476Y-114535452D01*
X258952380Y-114687833D02*
X259333333Y-114687833D01*
X258876190Y-114916404D02*
X259142857Y-114116404D01*
X259142857Y-114116404D02*
X259409523Y-114916404D01*
X259599999Y-114116404D02*
X259790475Y-114916404D01*
X259790475Y-114916404D02*
X259942856Y-114344976D01*
X259942856Y-114344976D02*
X260095237Y-114916404D01*
X260095237Y-114916404D02*
X260285714Y-114116404D01*
X267828571Y-125076404D02*
X267828571Y-124276404D01*
X267828571Y-124276404D02*
X268133333Y-124276404D01*
X268133333Y-124276404D02*
X268209523Y-124314500D01*
X268209523Y-124314500D02*
X268247618Y-124352595D01*
X268247618Y-124352595D02*
X268285714Y-124428785D01*
X268285714Y-124428785D02*
X268285714Y-124543071D01*
X268285714Y-124543071D02*
X268247618Y-124619261D01*
X268247618Y-124619261D02*
X268209523Y-124657357D01*
X268209523Y-124657357D02*
X268133333Y-124695452D01*
X268133333Y-124695452D02*
X267828571Y-124695452D01*
X268780952Y-124276404D02*
X268857142Y-124276404D01*
X268857142Y-124276404D02*
X268933333Y-124314500D01*
X268933333Y-124314500D02*
X268971428Y-124352595D01*
X268971428Y-124352595D02*
X269009523Y-124428785D01*
X269009523Y-124428785D02*
X269047618Y-124581166D01*
X269047618Y-124581166D02*
X269047618Y-124771642D01*
X269047618Y-124771642D02*
X269009523Y-124924023D01*
X269009523Y-124924023D02*
X268971428Y-125000214D01*
X268971428Y-125000214D02*
X268933333Y-125038309D01*
X268933333Y-125038309D02*
X268857142Y-125076404D01*
X268857142Y-125076404D02*
X268780952Y-125076404D01*
X268780952Y-125076404D02*
X268704761Y-125038309D01*
X268704761Y-125038309D02*
X268666666Y-125000214D01*
X268666666Y-125000214D02*
X268628571Y-124924023D01*
X268628571Y-124924023D02*
X268590475Y-124771642D01*
X268590475Y-124771642D02*
X268590475Y-124581166D01*
X268590475Y-124581166D02*
X268628571Y-124428785D01*
X268628571Y-124428785D02*
X268666666Y-124352595D01*
X268666666Y-124352595D02*
X268704761Y-124314500D01*
X268704761Y-124314500D02*
X268780952Y-124276404D01*
X269352380Y-124352595D02*
X269390476Y-124314500D01*
X269390476Y-124314500D02*
X269466666Y-124276404D01*
X269466666Y-124276404D02*
X269657142Y-124276404D01*
X269657142Y-124276404D02*
X269733333Y-124314500D01*
X269733333Y-124314500D02*
X269771428Y-124352595D01*
X269771428Y-124352595D02*
X269809523Y-124428785D01*
X269809523Y-124428785D02*
X269809523Y-124504976D01*
X269809523Y-124504976D02*
X269771428Y-124619261D01*
X269771428Y-124619261D02*
X269314285Y-125076404D01*
X269314285Y-125076404D02*
X269809523Y-125076404D01*
X258761905Y-119996404D02*
X258495238Y-119615452D01*
X258304762Y-119996404D02*
X258304762Y-119196404D01*
X258304762Y-119196404D02*
X258609524Y-119196404D01*
X258609524Y-119196404D02*
X258685714Y-119234500D01*
X258685714Y-119234500D02*
X258723809Y-119272595D01*
X258723809Y-119272595D02*
X258761905Y-119348785D01*
X258761905Y-119348785D02*
X258761905Y-119463071D01*
X258761905Y-119463071D02*
X258723809Y-119539261D01*
X258723809Y-119539261D02*
X258685714Y-119577357D01*
X258685714Y-119577357D02*
X258609524Y-119615452D01*
X258609524Y-119615452D02*
X258304762Y-119615452D01*
X259066666Y-119958309D02*
X259180952Y-119996404D01*
X259180952Y-119996404D02*
X259371428Y-119996404D01*
X259371428Y-119996404D02*
X259447619Y-119958309D01*
X259447619Y-119958309D02*
X259485714Y-119920214D01*
X259485714Y-119920214D02*
X259523809Y-119844023D01*
X259523809Y-119844023D02*
X259523809Y-119767833D01*
X259523809Y-119767833D02*
X259485714Y-119691642D01*
X259485714Y-119691642D02*
X259447619Y-119653547D01*
X259447619Y-119653547D02*
X259371428Y-119615452D01*
X259371428Y-119615452D02*
X259219047Y-119577357D01*
X259219047Y-119577357D02*
X259142857Y-119539261D01*
X259142857Y-119539261D02*
X259104762Y-119501166D01*
X259104762Y-119501166D02*
X259066666Y-119424976D01*
X259066666Y-119424976D02*
X259066666Y-119348785D01*
X259066666Y-119348785D02*
X259104762Y-119272595D01*
X259104762Y-119272595D02*
X259142857Y-119234500D01*
X259142857Y-119234500D02*
X259219047Y-119196404D01*
X259219047Y-119196404D02*
X259409524Y-119196404D01*
X259409524Y-119196404D02*
X259523809Y-119234500D01*
X259752381Y-119196404D02*
X260209524Y-119196404D01*
X259980952Y-119996404D02*
X259980952Y-119196404D01*
X258228571Y-125076404D02*
X258228571Y-124276404D01*
X258228571Y-124276404D02*
X258533333Y-124276404D01*
X258533333Y-124276404D02*
X258609523Y-124314500D01*
X258609523Y-124314500D02*
X258647618Y-124352595D01*
X258647618Y-124352595D02*
X258685714Y-124428785D01*
X258685714Y-124428785D02*
X258685714Y-124543071D01*
X258685714Y-124543071D02*
X258647618Y-124619261D01*
X258647618Y-124619261D02*
X258609523Y-124657357D01*
X258609523Y-124657357D02*
X258533333Y-124695452D01*
X258533333Y-124695452D02*
X258228571Y-124695452D01*
X258990475Y-124352595D02*
X259028571Y-124314500D01*
X259028571Y-124314500D02*
X259104761Y-124276404D01*
X259104761Y-124276404D02*
X259295237Y-124276404D01*
X259295237Y-124276404D02*
X259371428Y-124314500D01*
X259371428Y-124314500D02*
X259409523Y-124352595D01*
X259409523Y-124352595D02*
X259447618Y-124428785D01*
X259447618Y-124428785D02*
X259447618Y-124504976D01*
X259447618Y-124504976D02*
X259409523Y-124619261D01*
X259409523Y-124619261D02*
X258952380Y-125076404D01*
X258952380Y-125076404D02*
X259447618Y-125076404D01*
X260209523Y-125076404D02*
X259752380Y-125076404D01*
X259980952Y-125076404D02*
X259980952Y-124276404D01*
X259980952Y-124276404D02*
X259904761Y-124390690D01*
X259904761Y-124390690D02*
X259828571Y-124466880D01*
X259828571Y-124466880D02*
X259752380Y-124504976D01*
X258228571Y-137776404D02*
X258228571Y-136976404D01*
X258228571Y-136976404D02*
X258533333Y-136976404D01*
X258533333Y-136976404D02*
X258609523Y-137014500D01*
X258609523Y-137014500D02*
X258647618Y-137052595D01*
X258647618Y-137052595D02*
X258685714Y-137128785D01*
X258685714Y-137128785D02*
X258685714Y-137243071D01*
X258685714Y-137243071D02*
X258647618Y-137319261D01*
X258647618Y-137319261D02*
X258609523Y-137357357D01*
X258609523Y-137357357D02*
X258533333Y-137395452D01*
X258533333Y-137395452D02*
X258228571Y-137395452D01*
X259447618Y-137776404D02*
X258990475Y-137776404D01*
X259219047Y-137776404D02*
X259219047Y-136976404D01*
X259219047Y-136976404D02*
X259142856Y-137090690D01*
X259142856Y-137090690D02*
X259066666Y-137166880D01*
X259066666Y-137166880D02*
X258990475Y-137204976D01*
X260133333Y-137243071D02*
X260133333Y-137776404D01*
X259942857Y-136938309D02*
X259752380Y-137509738D01*
X259752380Y-137509738D02*
X260247619Y-137509738D01*
X268190476Y-121774500D02*
X268114286Y-121736404D01*
X268114286Y-121736404D02*
X268000000Y-121736404D01*
X268000000Y-121736404D02*
X267885714Y-121774500D01*
X267885714Y-121774500D02*
X267809524Y-121850690D01*
X267809524Y-121850690D02*
X267771429Y-121926880D01*
X267771429Y-121926880D02*
X267733333Y-122079261D01*
X267733333Y-122079261D02*
X267733333Y-122193547D01*
X267733333Y-122193547D02*
X267771429Y-122345928D01*
X267771429Y-122345928D02*
X267809524Y-122422119D01*
X267809524Y-122422119D02*
X267885714Y-122498309D01*
X267885714Y-122498309D02*
X268000000Y-122536404D01*
X268000000Y-122536404D02*
X268076191Y-122536404D01*
X268076191Y-122536404D02*
X268190476Y-122498309D01*
X268190476Y-122498309D02*
X268228572Y-122460214D01*
X268228572Y-122460214D02*
X268228572Y-122193547D01*
X268228572Y-122193547D02*
X268076191Y-122193547D01*
X268571429Y-122536404D02*
X268571429Y-121736404D01*
X268571429Y-121736404D02*
X269028572Y-122536404D01*
X269028572Y-122536404D02*
X269028572Y-121736404D01*
X269409524Y-122536404D02*
X269409524Y-121736404D01*
X269409524Y-121736404D02*
X269600000Y-121736404D01*
X269600000Y-121736404D02*
X269714286Y-121774500D01*
X269714286Y-121774500D02*
X269790476Y-121850690D01*
X269790476Y-121850690D02*
X269828571Y-121926880D01*
X269828571Y-121926880D02*
X269866667Y-122079261D01*
X269866667Y-122079261D02*
X269866667Y-122193547D01*
X269866667Y-122193547D02*
X269828571Y-122345928D01*
X269828571Y-122345928D02*
X269790476Y-122422119D01*
X269790476Y-122422119D02*
X269714286Y-122498309D01*
X269714286Y-122498309D02*
X269600000Y-122536404D01*
X269600000Y-122536404D02*
X269409524Y-122536404D01*
X267828571Y-130156404D02*
X267828571Y-129356404D01*
X267828571Y-129356404D02*
X268133333Y-129356404D01*
X268133333Y-129356404D02*
X268209523Y-129394500D01*
X268209523Y-129394500D02*
X268247618Y-129432595D01*
X268247618Y-129432595D02*
X268285714Y-129508785D01*
X268285714Y-129508785D02*
X268285714Y-129623071D01*
X268285714Y-129623071D02*
X268247618Y-129699261D01*
X268247618Y-129699261D02*
X268209523Y-129737357D01*
X268209523Y-129737357D02*
X268133333Y-129775452D01*
X268133333Y-129775452D02*
X267828571Y-129775452D01*
X268780952Y-129356404D02*
X268857142Y-129356404D01*
X268857142Y-129356404D02*
X268933333Y-129394500D01*
X268933333Y-129394500D02*
X268971428Y-129432595D01*
X268971428Y-129432595D02*
X269009523Y-129508785D01*
X269009523Y-129508785D02*
X269047618Y-129661166D01*
X269047618Y-129661166D02*
X269047618Y-129851642D01*
X269047618Y-129851642D02*
X269009523Y-130004023D01*
X269009523Y-130004023D02*
X268971428Y-130080214D01*
X268971428Y-130080214D02*
X268933333Y-130118309D01*
X268933333Y-130118309D02*
X268857142Y-130156404D01*
X268857142Y-130156404D02*
X268780952Y-130156404D01*
X268780952Y-130156404D02*
X268704761Y-130118309D01*
X268704761Y-130118309D02*
X268666666Y-130080214D01*
X268666666Y-130080214D02*
X268628571Y-130004023D01*
X268628571Y-130004023D02*
X268590475Y-129851642D01*
X268590475Y-129851642D02*
X268590475Y-129661166D01*
X268590475Y-129661166D02*
X268628571Y-129508785D01*
X268628571Y-129508785D02*
X268666666Y-129432595D01*
X268666666Y-129432595D02*
X268704761Y-129394500D01*
X268704761Y-129394500D02*
X268780952Y-129356404D01*
X269733333Y-129623071D02*
X269733333Y-130156404D01*
X269542857Y-129318309D02*
X269352380Y-129889738D01*
X269352380Y-129889738D02*
X269847619Y-129889738D01*
X258228571Y-142856404D02*
X258228571Y-142056404D01*
X258228571Y-142056404D02*
X258533333Y-142056404D01*
X258533333Y-142056404D02*
X258609523Y-142094500D01*
X258609523Y-142094500D02*
X258647618Y-142132595D01*
X258647618Y-142132595D02*
X258685714Y-142208785D01*
X258685714Y-142208785D02*
X258685714Y-142323071D01*
X258685714Y-142323071D02*
X258647618Y-142399261D01*
X258647618Y-142399261D02*
X258609523Y-142437357D01*
X258609523Y-142437357D02*
X258533333Y-142475452D01*
X258533333Y-142475452D02*
X258228571Y-142475452D01*
X259447618Y-142856404D02*
X258990475Y-142856404D01*
X259219047Y-142856404D02*
X259219047Y-142056404D01*
X259219047Y-142056404D02*
X259142856Y-142170690D01*
X259142856Y-142170690D02*
X259066666Y-142246880D01*
X259066666Y-142246880D02*
X258990475Y-142284976D01*
X259942857Y-142056404D02*
X260019047Y-142056404D01*
X260019047Y-142056404D02*
X260095238Y-142094500D01*
X260095238Y-142094500D02*
X260133333Y-142132595D01*
X260133333Y-142132595D02*
X260171428Y-142208785D01*
X260171428Y-142208785D02*
X260209523Y-142361166D01*
X260209523Y-142361166D02*
X260209523Y-142551642D01*
X260209523Y-142551642D02*
X260171428Y-142704023D01*
X260171428Y-142704023D02*
X260133333Y-142780214D01*
X260133333Y-142780214D02*
X260095238Y-142818309D01*
X260095238Y-142818309D02*
X260019047Y-142856404D01*
X260019047Y-142856404D02*
X259942857Y-142856404D01*
X259942857Y-142856404D02*
X259866666Y-142818309D01*
X259866666Y-142818309D02*
X259828571Y-142780214D01*
X259828571Y-142780214D02*
X259790476Y-142704023D01*
X259790476Y-142704023D02*
X259752380Y-142551642D01*
X259752380Y-142551642D02*
X259752380Y-142361166D01*
X259752380Y-142361166D02*
X259790476Y-142208785D01*
X259790476Y-142208785D02*
X259828571Y-142132595D01*
X259828571Y-142132595D02*
X259866666Y-142094500D01*
X259866666Y-142094500D02*
X259942857Y-142056404D01*
X267828571Y-132696404D02*
X267828571Y-131896404D01*
X267828571Y-131896404D02*
X268133333Y-131896404D01*
X268133333Y-131896404D02*
X268209523Y-131934500D01*
X268209523Y-131934500D02*
X268247618Y-131972595D01*
X268247618Y-131972595D02*
X268285714Y-132048785D01*
X268285714Y-132048785D02*
X268285714Y-132163071D01*
X268285714Y-132163071D02*
X268247618Y-132239261D01*
X268247618Y-132239261D02*
X268209523Y-132277357D01*
X268209523Y-132277357D02*
X268133333Y-132315452D01*
X268133333Y-132315452D02*
X267828571Y-132315452D01*
X268780952Y-131896404D02*
X268857142Y-131896404D01*
X268857142Y-131896404D02*
X268933333Y-131934500D01*
X268933333Y-131934500D02*
X268971428Y-131972595D01*
X268971428Y-131972595D02*
X269009523Y-132048785D01*
X269009523Y-132048785D02*
X269047618Y-132201166D01*
X269047618Y-132201166D02*
X269047618Y-132391642D01*
X269047618Y-132391642D02*
X269009523Y-132544023D01*
X269009523Y-132544023D02*
X268971428Y-132620214D01*
X268971428Y-132620214D02*
X268933333Y-132658309D01*
X268933333Y-132658309D02*
X268857142Y-132696404D01*
X268857142Y-132696404D02*
X268780952Y-132696404D01*
X268780952Y-132696404D02*
X268704761Y-132658309D01*
X268704761Y-132658309D02*
X268666666Y-132620214D01*
X268666666Y-132620214D02*
X268628571Y-132544023D01*
X268628571Y-132544023D02*
X268590475Y-132391642D01*
X268590475Y-132391642D02*
X268590475Y-132201166D01*
X268590475Y-132201166D02*
X268628571Y-132048785D01*
X268628571Y-132048785D02*
X268666666Y-131972595D01*
X268666666Y-131972595D02*
X268704761Y-131934500D01*
X268704761Y-131934500D02*
X268780952Y-131896404D01*
X269771428Y-131896404D02*
X269390476Y-131896404D01*
X269390476Y-131896404D02*
X269352380Y-132277357D01*
X269352380Y-132277357D02*
X269390476Y-132239261D01*
X269390476Y-132239261D02*
X269466666Y-132201166D01*
X269466666Y-132201166D02*
X269657142Y-132201166D01*
X269657142Y-132201166D02*
X269733333Y-132239261D01*
X269733333Y-132239261D02*
X269771428Y-132277357D01*
X269771428Y-132277357D02*
X269809523Y-132353547D01*
X269809523Y-132353547D02*
X269809523Y-132544023D01*
X269809523Y-132544023D02*
X269771428Y-132620214D01*
X269771428Y-132620214D02*
X269733333Y-132658309D01*
X269733333Y-132658309D02*
X269657142Y-132696404D01*
X269657142Y-132696404D02*
X269466666Y-132696404D01*
X269466666Y-132696404D02*
X269390476Y-132658309D01*
X269390476Y-132658309D02*
X269352380Y-132620214D01*
X267828571Y-117456404D02*
X267828571Y-116656404D01*
X267828571Y-116656404D02*
X268133333Y-116656404D01*
X268133333Y-116656404D02*
X268209523Y-116694500D01*
X268209523Y-116694500D02*
X268247618Y-116732595D01*
X268247618Y-116732595D02*
X268285714Y-116808785D01*
X268285714Y-116808785D02*
X268285714Y-116923071D01*
X268285714Y-116923071D02*
X268247618Y-116999261D01*
X268247618Y-116999261D02*
X268209523Y-117037357D01*
X268209523Y-117037357D02*
X268133333Y-117075452D01*
X268133333Y-117075452D02*
X267828571Y-117075452D01*
X268780952Y-116656404D02*
X268857142Y-116656404D01*
X268857142Y-116656404D02*
X268933333Y-116694500D01*
X268933333Y-116694500D02*
X268971428Y-116732595D01*
X268971428Y-116732595D02*
X269009523Y-116808785D01*
X269009523Y-116808785D02*
X269047618Y-116961166D01*
X269047618Y-116961166D02*
X269047618Y-117151642D01*
X269047618Y-117151642D02*
X269009523Y-117304023D01*
X269009523Y-117304023D02*
X268971428Y-117380214D01*
X268971428Y-117380214D02*
X268933333Y-117418309D01*
X268933333Y-117418309D02*
X268857142Y-117456404D01*
X268857142Y-117456404D02*
X268780952Y-117456404D01*
X268780952Y-117456404D02*
X268704761Y-117418309D01*
X268704761Y-117418309D02*
X268666666Y-117380214D01*
X268666666Y-117380214D02*
X268628571Y-117304023D01*
X268628571Y-117304023D02*
X268590475Y-117151642D01*
X268590475Y-117151642D02*
X268590475Y-116961166D01*
X268590475Y-116961166D02*
X268628571Y-116808785D01*
X268628571Y-116808785D02*
X268666666Y-116732595D01*
X268666666Y-116732595D02*
X268704761Y-116694500D01*
X268704761Y-116694500D02*
X268780952Y-116656404D01*
X269542857Y-116656404D02*
X269619047Y-116656404D01*
X269619047Y-116656404D02*
X269695238Y-116694500D01*
X269695238Y-116694500D02*
X269733333Y-116732595D01*
X269733333Y-116732595D02*
X269771428Y-116808785D01*
X269771428Y-116808785D02*
X269809523Y-116961166D01*
X269809523Y-116961166D02*
X269809523Y-117151642D01*
X269809523Y-117151642D02*
X269771428Y-117304023D01*
X269771428Y-117304023D02*
X269733333Y-117380214D01*
X269733333Y-117380214D02*
X269695238Y-117418309D01*
X269695238Y-117418309D02*
X269619047Y-117456404D01*
X269619047Y-117456404D02*
X269542857Y-117456404D01*
X269542857Y-117456404D02*
X269466666Y-117418309D01*
X269466666Y-117418309D02*
X269428571Y-117380214D01*
X269428571Y-117380214D02*
X269390476Y-117304023D01*
X269390476Y-117304023D02*
X269352380Y-117151642D01*
X269352380Y-117151642D02*
X269352380Y-116961166D01*
X269352380Y-116961166D02*
X269390476Y-116808785D01*
X269390476Y-116808785D02*
X269428571Y-116732595D01*
X269428571Y-116732595D02*
X269466666Y-116694500D01*
X269466666Y-116694500D02*
X269542857Y-116656404D01*
X267828571Y-137776404D02*
X267828571Y-136976404D01*
X267828571Y-136976404D02*
X268133333Y-136976404D01*
X268133333Y-136976404D02*
X268209523Y-137014500D01*
X268209523Y-137014500D02*
X268247618Y-137052595D01*
X268247618Y-137052595D02*
X268285714Y-137128785D01*
X268285714Y-137128785D02*
X268285714Y-137243071D01*
X268285714Y-137243071D02*
X268247618Y-137319261D01*
X268247618Y-137319261D02*
X268209523Y-137357357D01*
X268209523Y-137357357D02*
X268133333Y-137395452D01*
X268133333Y-137395452D02*
X267828571Y-137395452D01*
X268780952Y-136976404D02*
X268857142Y-136976404D01*
X268857142Y-136976404D02*
X268933333Y-137014500D01*
X268933333Y-137014500D02*
X268971428Y-137052595D01*
X268971428Y-137052595D02*
X269009523Y-137128785D01*
X269009523Y-137128785D02*
X269047618Y-137281166D01*
X269047618Y-137281166D02*
X269047618Y-137471642D01*
X269047618Y-137471642D02*
X269009523Y-137624023D01*
X269009523Y-137624023D02*
X268971428Y-137700214D01*
X268971428Y-137700214D02*
X268933333Y-137738309D01*
X268933333Y-137738309D02*
X268857142Y-137776404D01*
X268857142Y-137776404D02*
X268780952Y-137776404D01*
X268780952Y-137776404D02*
X268704761Y-137738309D01*
X268704761Y-137738309D02*
X268666666Y-137700214D01*
X268666666Y-137700214D02*
X268628571Y-137624023D01*
X268628571Y-137624023D02*
X268590475Y-137471642D01*
X268590475Y-137471642D02*
X268590475Y-137281166D01*
X268590475Y-137281166D02*
X268628571Y-137128785D01*
X268628571Y-137128785D02*
X268666666Y-137052595D01*
X268666666Y-137052595D02*
X268704761Y-137014500D01*
X268704761Y-137014500D02*
X268780952Y-136976404D01*
X269314285Y-136976404D02*
X269847619Y-136976404D01*
X269847619Y-136976404D02*
X269504761Y-137776404D01*
X267828571Y-142856404D02*
X267828571Y-142056404D01*
X267828571Y-142056404D02*
X268133333Y-142056404D01*
X268133333Y-142056404D02*
X268209523Y-142094500D01*
X268209523Y-142094500D02*
X268247618Y-142132595D01*
X268247618Y-142132595D02*
X268285714Y-142208785D01*
X268285714Y-142208785D02*
X268285714Y-142323071D01*
X268285714Y-142323071D02*
X268247618Y-142399261D01*
X268247618Y-142399261D02*
X268209523Y-142437357D01*
X268209523Y-142437357D02*
X268133333Y-142475452D01*
X268133333Y-142475452D02*
X267828571Y-142475452D01*
X268780952Y-142056404D02*
X268857142Y-142056404D01*
X268857142Y-142056404D02*
X268933333Y-142094500D01*
X268933333Y-142094500D02*
X268971428Y-142132595D01*
X268971428Y-142132595D02*
X269009523Y-142208785D01*
X269009523Y-142208785D02*
X269047618Y-142361166D01*
X269047618Y-142361166D02*
X269047618Y-142551642D01*
X269047618Y-142551642D02*
X269009523Y-142704023D01*
X269009523Y-142704023D02*
X268971428Y-142780214D01*
X268971428Y-142780214D02*
X268933333Y-142818309D01*
X268933333Y-142818309D02*
X268857142Y-142856404D01*
X268857142Y-142856404D02*
X268780952Y-142856404D01*
X268780952Y-142856404D02*
X268704761Y-142818309D01*
X268704761Y-142818309D02*
X268666666Y-142780214D01*
X268666666Y-142780214D02*
X268628571Y-142704023D01*
X268628571Y-142704023D02*
X268590475Y-142551642D01*
X268590475Y-142551642D02*
X268590475Y-142361166D01*
X268590475Y-142361166D02*
X268628571Y-142208785D01*
X268628571Y-142208785D02*
X268666666Y-142132595D01*
X268666666Y-142132595D02*
X268704761Y-142094500D01*
X268704761Y-142094500D02*
X268780952Y-142056404D01*
X269428571Y-142856404D02*
X269580952Y-142856404D01*
X269580952Y-142856404D02*
X269657142Y-142818309D01*
X269657142Y-142818309D02*
X269695238Y-142780214D01*
X269695238Y-142780214D02*
X269771428Y-142665928D01*
X269771428Y-142665928D02*
X269809523Y-142513547D01*
X269809523Y-142513547D02*
X269809523Y-142208785D01*
X269809523Y-142208785D02*
X269771428Y-142132595D01*
X269771428Y-142132595D02*
X269733333Y-142094500D01*
X269733333Y-142094500D02*
X269657142Y-142056404D01*
X269657142Y-142056404D02*
X269504761Y-142056404D01*
X269504761Y-142056404D02*
X269428571Y-142094500D01*
X269428571Y-142094500D02*
X269390476Y-142132595D01*
X269390476Y-142132595D02*
X269352380Y-142208785D01*
X269352380Y-142208785D02*
X269352380Y-142399261D01*
X269352380Y-142399261D02*
X269390476Y-142475452D01*
X269390476Y-142475452D02*
X269428571Y-142513547D01*
X269428571Y-142513547D02*
X269504761Y-142551642D01*
X269504761Y-142551642D02*
X269657142Y-142551642D01*
X269657142Y-142551642D02*
X269733333Y-142513547D01*
X269733333Y-142513547D02*
X269771428Y-142475452D01*
X269771428Y-142475452D02*
X269809523Y-142399261D01*
X258228571Y-140316404D02*
X258228571Y-139516404D01*
X258228571Y-139516404D02*
X258533333Y-139516404D01*
X258533333Y-139516404D02*
X258609523Y-139554500D01*
X258609523Y-139554500D02*
X258647618Y-139592595D01*
X258647618Y-139592595D02*
X258685714Y-139668785D01*
X258685714Y-139668785D02*
X258685714Y-139783071D01*
X258685714Y-139783071D02*
X258647618Y-139859261D01*
X258647618Y-139859261D02*
X258609523Y-139897357D01*
X258609523Y-139897357D02*
X258533333Y-139935452D01*
X258533333Y-139935452D02*
X258228571Y-139935452D01*
X259447618Y-140316404D02*
X258990475Y-140316404D01*
X259219047Y-140316404D02*
X259219047Y-139516404D01*
X259219047Y-139516404D02*
X259142856Y-139630690D01*
X259142856Y-139630690D02*
X259066666Y-139706880D01*
X259066666Y-139706880D02*
X258990475Y-139744976D01*
X260133333Y-139516404D02*
X259980952Y-139516404D01*
X259980952Y-139516404D02*
X259904761Y-139554500D01*
X259904761Y-139554500D02*
X259866666Y-139592595D01*
X259866666Y-139592595D02*
X259790476Y-139706880D01*
X259790476Y-139706880D02*
X259752380Y-139859261D01*
X259752380Y-139859261D02*
X259752380Y-140164023D01*
X259752380Y-140164023D02*
X259790476Y-140240214D01*
X259790476Y-140240214D02*
X259828571Y-140278309D01*
X259828571Y-140278309D02*
X259904761Y-140316404D01*
X259904761Y-140316404D02*
X260057142Y-140316404D01*
X260057142Y-140316404D02*
X260133333Y-140278309D01*
X260133333Y-140278309D02*
X260171428Y-140240214D01*
X260171428Y-140240214D02*
X260209523Y-140164023D01*
X260209523Y-140164023D02*
X260209523Y-139973547D01*
X260209523Y-139973547D02*
X260171428Y-139897357D01*
X260171428Y-139897357D02*
X260133333Y-139859261D01*
X260133333Y-139859261D02*
X260057142Y-139821166D01*
X260057142Y-139821166D02*
X259904761Y-139821166D01*
X259904761Y-139821166D02*
X259828571Y-139859261D01*
X259828571Y-139859261D02*
X259790476Y-139897357D01*
X259790476Y-139897357D02*
X259752380Y-139973547D01*
X258133333Y-121736404D02*
X258400000Y-122536404D01*
X258400000Y-122536404D02*
X258666666Y-121736404D01*
X259390476Y-122460214D02*
X259352380Y-122498309D01*
X259352380Y-122498309D02*
X259238095Y-122536404D01*
X259238095Y-122536404D02*
X259161904Y-122536404D01*
X259161904Y-122536404D02*
X259047618Y-122498309D01*
X259047618Y-122498309D02*
X258971428Y-122422119D01*
X258971428Y-122422119D02*
X258933333Y-122345928D01*
X258933333Y-122345928D02*
X258895237Y-122193547D01*
X258895237Y-122193547D02*
X258895237Y-122079261D01*
X258895237Y-122079261D02*
X258933333Y-121926880D01*
X258933333Y-121926880D02*
X258971428Y-121850690D01*
X258971428Y-121850690D02*
X259047618Y-121774500D01*
X259047618Y-121774500D02*
X259161904Y-121736404D01*
X259161904Y-121736404D02*
X259238095Y-121736404D01*
X259238095Y-121736404D02*
X259352380Y-121774500D01*
X259352380Y-121774500D02*
X259390476Y-121812595D01*
X260190476Y-122460214D02*
X260152380Y-122498309D01*
X260152380Y-122498309D02*
X260038095Y-122536404D01*
X260038095Y-122536404D02*
X259961904Y-122536404D01*
X259961904Y-122536404D02*
X259847618Y-122498309D01*
X259847618Y-122498309D02*
X259771428Y-122422119D01*
X259771428Y-122422119D02*
X259733333Y-122345928D01*
X259733333Y-122345928D02*
X259695237Y-122193547D01*
X259695237Y-122193547D02*
X259695237Y-122079261D01*
X259695237Y-122079261D02*
X259733333Y-121926880D01*
X259733333Y-121926880D02*
X259771428Y-121850690D01*
X259771428Y-121850690D02*
X259847618Y-121774500D01*
X259847618Y-121774500D02*
X259961904Y-121736404D01*
X259961904Y-121736404D02*
X260038095Y-121736404D01*
X260038095Y-121736404D02*
X260152380Y-121774500D01*
X260152380Y-121774500D02*
X260190476Y-121812595D01*
X267828571Y-127616404D02*
X267828571Y-126816404D01*
X267828571Y-126816404D02*
X268133333Y-126816404D01*
X268133333Y-126816404D02*
X268209523Y-126854500D01*
X268209523Y-126854500D02*
X268247618Y-126892595D01*
X268247618Y-126892595D02*
X268285714Y-126968785D01*
X268285714Y-126968785D02*
X268285714Y-127083071D01*
X268285714Y-127083071D02*
X268247618Y-127159261D01*
X268247618Y-127159261D02*
X268209523Y-127197357D01*
X268209523Y-127197357D02*
X268133333Y-127235452D01*
X268133333Y-127235452D02*
X267828571Y-127235452D01*
X268780952Y-126816404D02*
X268857142Y-126816404D01*
X268857142Y-126816404D02*
X268933333Y-126854500D01*
X268933333Y-126854500D02*
X268971428Y-126892595D01*
X268971428Y-126892595D02*
X269009523Y-126968785D01*
X269009523Y-126968785D02*
X269047618Y-127121166D01*
X269047618Y-127121166D02*
X269047618Y-127311642D01*
X269047618Y-127311642D02*
X269009523Y-127464023D01*
X269009523Y-127464023D02*
X268971428Y-127540214D01*
X268971428Y-127540214D02*
X268933333Y-127578309D01*
X268933333Y-127578309D02*
X268857142Y-127616404D01*
X268857142Y-127616404D02*
X268780952Y-127616404D01*
X268780952Y-127616404D02*
X268704761Y-127578309D01*
X268704761Y-127578309D02*
X268666666Y-127540214D01*
X268666666Y-127540214D02*
X268628571Y-127464023D01*
X268628571Y-127464023D02*
X268590475Y-127311642D01*
X268590475Y-127311642D02*
X268590475Y-127121166D01*
X268590475Y-127121166D02*
X268628571Y-126968785D01*
X268628571Y-126968785D02*
X268666666Y-126892595D01*
X268666666Y-126892595D02*
X268704761Y-126854500D01*
X268704761Y-126854500D02*
X268780952Y-126816404D01*
X269314285Y-126816404D02*
X269809523Y-126816404D01*
X269809523Y-126816404D02*
X269542857Y-127121166D01*
X269542857Y-127121166D02*
X269657142Y-127121166D01*
X269657142Y-127121166D02*
X269733333Y-127159261D01*
X269733333Y-127159261D02*
X269771428Y-127197357D01*
X269771428Y-127197357D02*
X269809523Y-127273547D01*
X269809523Y-127273547D02*
X269809523Y-127464023D01*
X269809523Y-127464023D02*
X269771428Y-127540214D01*
X269771428Y-127540214D02*
X269733333Y-127578309D01*
X269733333Y-127578309D02*
X269657142Y-127616404D01*
X269657142Y-127616404D02*
X269428571Y-127616404D01*
X269428571Y-127616404D02*
X269352380Y-127578309D01*
X269352380Y-127578309D02*
X269314285Y-127540214D01*
X258228571Y-130156404D02*
X258228571Y-129356404D01*
X258228571Y-129356404D02*
X258533333Y-129356404D01*
X258533333Y-129356404D02*
X258609523Y-129394500D01*
X258609523Y-129394500D02*
X258647618Y-129432595D01*
X258647618Y-129432595D02*
X258685714Y-129508785D01*
X258685714Y-129508785D02*
X258685714Y-129623071D01*
X258685714Y-129623071D02*
X258647618Y-129699261D01*
X258647618Y-129699261D02*
X258609523Y-129737357D01*
X258609523Y-129737357D02*
X258533333Y-129775452D01*
X258533333Y-129775452D02*
X258228571Y-129775452D01*
X259447618Y-130156404D02*
X258990475Y-130156404D01*
X259219047Y-130156404D02*
X259219047Y-129356404D01*
X259219047Y-129356404D02*
X259142856Y-129470690D01*
X259142856Y-129470690D02*
X259066666Y-129546880D01*
X259066666Y-129546880D02*
X258990475Y-129584976D01*
X259828571Y-130156404D02*
X259980952Y-130156404D01*
X259980952Y-130156404D02*
X260057142Y-130118309D01*
X260057142Y-130118309D02*
X260095238Y-130080214D01*
X260095238Y-130080214D02*
X260171428Y-129965928D01*
X260171428Y-129965928D02*
X260209523Y-129813547D01*
X260209523Y-129813547D02*
X260209523Y-129508785D01*
X260209523Y-129508785D02*
X260171428Y-129432595D01*
X260171428Y-129432595D02*
X260133333Y-129394500D01*
X260133333Y-129394500D02*
X260057142Y-129356404D01*
X260057142Y-129356404D02*
X259904761Y-129356404D01*
X259904761Y-129356404D02*
X259828571Y-129394500D01*
X259828571Y-129394500D02*
X259790476Y-129432595D01*
X259790476Y-129432595D02*
X259752380Y-129508785D01*
X259752380Y-129508785D02*
X259752380Y-129699261D01*
X259752380Y-129699261D02*
X259790476Y-129775452D01*
X259790476Y-129775452D02*
X259828571Y-129813547D01*
X259828571Y-129813547D02*
X259904761Y-129851642D01*
X259904761Y-129851642D02*
X260057142Y-129851642D01*
X260057142Y-129851642D02*
X260133333Y-129813547D01*
X260133333Y-129813547D02*
X260171428Y-129775452D01*
X260171428Y-129775452D02*
X260209523Y-129699261D01*
X268190476Y-119234500D02*
X268114286Y-119196404D01*
X268114286Y-119196404D02*
X268000000Y-119196404D01*
X268000000Y-119196404D02*
X267885714Y-119234500D01*
X267885714Y-119234500D02*
X267809524Y-119310690D01*
X267809524Y-119310690D02*
X267771429Y-119386880D01*
X267771429Y-119386880D02*
X267733333Y-119539261D01*
X267733333Y-119539261D02*
X267733333Y-119653547D01*
X267733333Y-119653547D02*
X267771429Y-119805928D01*
X267771429Y-119805928D02*
X267809524Y-119882119D01*
X267809524Y-119882119D02*
X267885714Y-119958309D01*
X267885714Y-119958309D02*
X268000000Y-119996404D01*
X268000000Y-119996404D02*
X268076191Y-119996404D01*
X268076191Y-119996404D02*
X268190476Y-119958309D01*
X268190476Y-119958309D02*
X268228572Y-119920214D01*
X268228572Y-119920214D02*
X268228572Y-119653547D01*
X268228572Y-119653547D02*
X268076191Y-119653547D01*
X268571429Y-119996404D02*
X268571429Y-119196404D01*
X268571429Y-119196404D02*
X269028572Y-119996404D01*
X269028572Y-119996404D02*
X269028572Y-119196404D01*
X269409524Y-119996404D02*
X269409524Y-119196404D01*
X269409524Y-119196404D02*
X269600000Y-119196404D01*
X269600000Y-119196404D02*
X269714286Y-119234500D01*
X269714286Y-119234500D02*
X269790476Y-119310690D01*
X269790476Y-119310690D02*
X269828571Y-119386880D01*
X269828571Y-119386880D02*
X269866667Y-119539261D01*
X269866667Y-119539261D02*
X269866667Y-119653547D01*
X269866667Y-119653547D02*
X269828571Y-119805928D01*
X269828571Y-119805928D02*
X269790476Y-119882119D01*
X269790476Y-119882119D02*
X269714286Y-119958309D01*
X269714286Y-119958309D02*
X269600000Y-119996404D01*
X269600000Y-119996404D02*
X269409524Y-119996404D01*
X258228571Y-132696404D02*
X258228571Y-131896404D01*
X258228571Y-131896404D02*
X258533333Y-131896404D01*
X258533333Y-131896404D02*
X258609523Y-131934500D01*
X258609523Y-131934500D02*
X258647618Y-131972595D01*
X258647618Y-131972595D02*
X258685714Y-132048785D01*
X258685714Y-132048785D02*
X258685714Y-132163071D01*
X258685714Y-132163071D02*
X258647618Y-132239261D01*
X258647618Y-132239261D02*
X258609523Y-132277357D01*
X258609523Y-132277357D02*
X258533333Y-132315452D01*
X258533333Y-132315452D02*
X258228571Y-132315452D01*
X259447618Y-132696404D02*
X258990475Y-132696404D01*
X259219047Y-132696404D02*
X259219047Y-131896404D01*
X259219047Y-131896404D02*
X259142856Y-132010690D01*
X259142856Y-132010690D02*
X259066666Y-132086880D01*
X259066666Y-132086880D02*
X258990475Y-132124976D01*
X259904761Y-132239261D02*
X259828571Y-132201166D01*
X259828571Y-132201166D02*
X259790476Y-132163071D01*
X259790476Y-132163071D02*
X259752380Y-132086880D01*
X259752380Y-132086880D02*
X259752380Y-132048785D01*
X259752380Y-132048785D02*
X259790476Y-131972595D01*
X259790476Y-131972595D02*
X259828571Y-131934500D01*
X259828571Y-131934500D02*
X259904761Y-131896404D01*
X259904761Y-131896404D02*
X260057142Y-131896404D01*
X260057142Y-131896404D02*
X260133333Y-131934500D01*
X260133333Y-131934500D02*
X260171428Y-131972595D01*
X260171428Y-131972595D02*
X260209523Y-132048785D01*
X260209523Y-132048785D02*
X260209523Y-132086880D01*
X260209523Y-132086880D02*
X260171428Y-132163071D01*
X260171428Y-132163071D02*
X260133333Y-132201166D01*
X260133333Y-132201166D02*
X260057142Y-132239261D01*
X260057142Y-132239261D02*
X259904761Y-132239261D01*
X259904761Y-132239261D02*
X259828571Y-132277357D01*
X259828571Y-132277357D02*
X259790476Y-132315452D01*
X259790476Y-132315452D02*
X259752380Y-132391642D01*
X259752380Y-132391642D02*
X259752380Y-132544023D01*
X259752380Y-132544023D02*
X259790476Y-132620214D01*
X259790476Y-132620214D02*
X259828571Y-132658309D01*
X259828571Y-132658309D02*
X259904761Y-132696404D01*
X259904761Y-132696404D02*
X260057142Y-132696404D01*
X260057142Y-132696404D02*
X260133333Y-132658309D01*
X260133333Y-132658309D02*
X260171428Y-132620214D01*
X260171428Y-132620214D02*
X260209523Y-132544023D01*
X260209523Y-132544023D02*
X260209523Y-132391642D01*
X260209523Y-132391642D02*
X260171428Y-132315452D01*
X260171428Y-132315452D02*
X260133333Y-132277357D01*
X260133333Y-132277357D02*
X260057142Y-132239261D01*
%TO.C,USBC1*%
D11*
%TO.C,D18*%
X216604635Y-175054275D02*
X216998558Y-174984816D01*
X216998558Y-174984816D02*
X216903052Y-174443172D01*
X216998558Y-174984816D02*
X217094065Y-175526460D01*
X216998558Y-174984816D02*
X217519984Y-174486704D01*
X217519984Y-174486704D02*
X217658902Y-175274550D01*
X217589443Y-174880627D02*
X218081847Y-174793803D01*
X217658902Y-175274550D02*
X216998558Y-174984816D01*
%TO.C,D15*%
X244250000Y-153092500D02*
X244650000Y-153092500D01*
X244650000Y-153092500D02*
X244650000Y-152542500D01*
X244650000Y-153092500D02*
X244650000Y-153642500D01*
X244650000Y-153092500D02*
X245250000Y-152692500D01*
X245250000Y-152692500D02*
X245250000Y-153492500D01*
X245250000Y-153092500D02*
X245750000Y-153092500D01*
X245250000Y-153492500D02*
X244650000Y-153092500D01*
%TO.C,D16*%
X244250000Y-134092500D02*
X244650000Y-134092500D01*
X244650000Y-134092500D02*
X244650000Y-133542500D01*
X244650000Y-134092500D02*
X244650000Y-134642500D01*
X244650000Y-134092500D02*
X245250000Y-133692500D01*
X245250000Y-133692500D02*
X245250000Y-134492500D01*
X245250000Y-134092500D02*
X245750000Y-134092500D01*
X245250000Y-134492500D02*
X244650000Y-134092500D01*
%TO.C,D4*%
X168250000Y-144570000D02*
X168650000Y-144570000D01*
X168650000Y-144570000D02*
X168650000Y-144020000D01*
X168650000Y-144570000D02*
X168650000Y-145120000D01*
X168650000Y-144570000D02*
X169250000Y-144170000D01*
X169250000Y-144170000D02*
X169250000Y-144970000D01*
X169250000Y-144570000D02*
X169750000Y-144570000D01*
X169250000Y-144970000D02*
X168650000Y-144570000D01*
%TO.C,D7*%
X187250000Y-131235000D02*
X187650000Y-131235000D01*
X187650000Y-131235000D02*
X187650000Y-130685000D01*
X187650000Y-131235000D02*
X187650000Y-131785000D01*
X187650000Y-131235000D02*
X188250000Y-130835000D01*
X188250000Y-130835000D02*
X188250000Y-131635000D01*
X188250000Y-131235000D02*
X188750000Y-131235000D01*
X188250000Y-131635000D02*
X187650000Y-131235000D01*
%TO.C,D5*%
X168250000Y-125570000D02*
X168650000Y-125570000D01*
X168650000Y-125570000D02*
X168650000Y-125020000D01*
X168650000Y-125570000D02*
X168650000Y-126120000D01*
X168650000Y-125570000D02*
X169250000Y-125170000D01*
X169250000Y-125170000D02*
X169250000Y-125970000D01*
X169250000Y-125570000D02*
X169750000Y-125570000D01*
X169250000Y-125970000D02*
X168650000Y-125570000D01*
%TO.C,D6*%
X187250000Y-150235000D02*
X187650000Y-150235000D01*
X187650000Y-150235000D02*
X187650000Y-149685000D01*
X187650000Y-150235000D02*
X187650000Y-150785000D01*
X187650000Y-150235000D02*
X188250000Y-149835000D01*
X188250000Y-149835000D02*
X188250000Y-150635000D01*
X188250000Y-150235000D02*
X188750000Y-150235000D01*
X188250000Y-150635000D02*
X187650000Y-150235000D01*
%TO.C,D8*%
X187250000Y-112235000D02*
X187650000Y-112235000D01*
X187650000Y-112235000D02*
X187650000Y-111685000D01*
X187650000Y-112235000D02*
X187650000Y-112785000D01*
X187650000Y-112235000D02*
X188250000Y-111835000D01*
X188250000Y-111835000D02*
X188250000Y-112635000D01*
X188250000Y-112235000D02*
X188750000Y-112235000D01*
X188250000Y-112635000D02*
X187650000Y-112235000D01*
%TO.C,D3*%
X168250000Y-163570000D02*
X168650000Y-163570000D01*
X168650000Y-163570000D02*
X168650000Y-163020000D01*
X168650000Y-163570000D02*
X168650000Y-164120000D01*
X168650000Y-163570000D02*
X169250000Y-163170000D01*
X169250000Y-163170000D02*
X169250000Y-163970000D01*
X169250000Y-163570000D02*
X169750000Y-163570000D01*
X169250000Y-163970000D02*
X168650000Y-163570000D01*
D10*
%TO.C,MCU1*%
X272890000Y-110812500D02*
X255110000Y-110812500D01*
X255110000Y-110812500D02*
X255110000Y-143832500D01*
X257650000Y-113352500D02*
X255110000Y-113352500D01*
X257650000Y-113352500D02*
X257650000Y-115892500D01*
X257650000Y-115892500D02*
X255110000Y-115892500D01*
X272890000Y-143832500D02*
X272890000Y-110812500D01*
X255110000Y-143832500D02*
X272890000Y-143832500D01*
D11*
%TO.C,D20*%
X259489224Y-172483590D02*
X259851747Y-172652638D01*
X259851747Y-172652638D02*
X260084187Y-172154168D01*
X259851747Y-172652638D02*
X259619307Y-173151107D01*
X259851747Y-172652638D02*
X260564579Y-172543685D01*
X260564579Y-172543685D02*
X260226485Y-173268732D01*
X260395532Y-172906209D02*
X260848686Y-173117518D01*
X260226485Y-173268732D02*
X259851747Y-172652638D01*
%TO.C,D10*%
X206250000Y-126472500D02*
X206650000Y-126472500D01*
X206650000Y-126472500D02*
X206650000Y-125922500D01*
X206650000Y-126472500D02*
X206650000Y-127022500D01*
X206650000Y-126472500D02*
X207250000Y-126072500D01*
X207250000Y-126072500D02*
X207250000Y-126872500D01*
X207250000Y-126472500D02*
X207750000Y-126472500D01*
X207250000Y-126872500D02*
X206650000Y-126472500D01*
%TO.C,D11*%
X206250000Y-107472500D02*
X206650000Y-107472500D01*
X206650000Y-107472500D02*
X206650000Y-106922500D01*
X206650000Y-107472500D02*
X206650000Y-108022500D01*
X206650000Y-107472500D02*
X207250000Y-107072500D01*
X207250000Y-107072500D02*
X207250000Y-107872500D01*
X207250000Y-107472500D02*
X207750000Y-107472500D01*
X207250000Y-107872500D02*
X206650000Y-107472500D01*
%TO.C,D9*%
X206250000Y-145472500D02*
X206650000Y-145472500D01*
X206650000Y-145472500D02*
X206650000Y-144922500D01*
X206650000Y-145472500D02*
X206650000Y-146022500D01*
X206650000Y-145472500D02*
X207250000Y-145072500D01*
X207250000Y-145072500D02*
X207250000Y-145872500D01*
X207250000Y-145472500D02*
X207750000Y-145472500D01*
X207250000Y-145872500D02*
X206650000Y-145472500D01*
%TO.C,D17*%
X244250000Y-115092500D02*
X244650000Y-115092500D01*
X244650000Y-115092500D02*
X244650000Y-114542500D01*
X244650000Y-115092500D02*
X244650000Y-115642500D01*
X244650000Y-115092500D02*
X245250000Y-114692500D01*
X245250000Y-114692500D02*
X245250000Y-115492500D01*
X245250000Y-115092500D02*
X245750000Y-115092500D01*
X245250000Y-115492500D02*
X244650000Y-115092500D01*
%TO.C,D14*%
X225250000Y-112235000D02*
X225650000Y-112235000D01*
X225650000Y-112235000D02*
X225650000Y-111685000D01*
X225650000Y-112235000D02*
X225650000Y-112785000D01*
X225650000Y-112235000D02*
X226250000Y-111835000D01*
X226250000Y-111835000D02*
X226250000Y-112635000D01*
X226250000Y-112235000D02*
X226750000Y-112235000D01*
X226250000Y-112635000D02*
X225650000Y-112235000D01*
%TO.C,D19*%
X236936347Y-173200685D02*
X237336347Y-173200685D01*
X237336347Y-173200685D02*
X237336347Y-172650685D01*
X237336347Y-173200685D02*
X237336347Y-173750685D01*
X237336347Y-173200685D02*
X237936347Y-172800685D01*
X237936347Y-172800685D02*
X237936347Y-173600685D01*
X237936347Y-173200685D02*
X238436347Y-173200685D01*
X237936347Y-173600685D02*
X237336347Y-173200685D01*
%TO.C,D2*%
X149250000Y-137000000D02*
X149650000Y-137000000D01*
X149650000Y-137000000D02*
X149650000Y-136450000D01*
X149650000Y-137000000D02*
X149650000Y-137550000D01*
X149650000Y-137000000D02*
X150250000Y-136600000D01*
X150250000Y-136600000D02*
X150250000Y-137400000D01*
X150250000Y-137000000D02*
X150750000Y-137000000D01*
X150250000Y-137400000D02*
X149650000Y-137000000D01*
D12*
%TO.C,USBC1*%
X261657500Y-155550000D02*
X261657500Y-154050000D01*
X262967500Y-155550000D02*
X261657500Y-155550000D01*
X264667500Y-155550000D02*
X268767500Y-155550000D01*
X270767500Y-155550000D02*
X272157500Y-155550000D01*
X272157500Y-155550000D02*
X272157500Y-146350000D01*
X261657500Y-147850000D02*
X261657500Y-146350000D01*
X261657500Y-146350000D02*
X262967500Y-146350000D01*
X264667500Y-146350000D02*
X268767500Y-146350000D01*
X272157500Y-146350000D02*
X270767500Y-146350000D01*
D11*
X261107500Y-153700000D02*
G75*
G03*
X261107500Y-153700000I-50000J0D01*
G01*
%TO.C,D12*%
X225250000Y-150235000D02*
X225650000Y-150235000D01*
X225650000Y-150235000D02*
X225650000Y-149685000D01*
X225650000Y-150235000D02*
X225650000Y-150785000D01*
X225650000Y-150235000D02*
X226250000Y-149835000D01*
X226250000Y-149835000D02*
X226250000Y-150635000D01*
X226250000Y-150235000D02*
X226750000Y-150235000D01*
X226250000Y-150635000D02*
X225650000Y-150235000D01*
%TO.C,D13*%
X225250000Y-131235000D02*
X225650000Y-131235000D01*
X225650000Y-131235000D02*
X225650000Y-130685000D01*
X225650000Y-131235000D02*
X225650000Y-131785000D01*
X225650000Y-131235000D02*
X226250000Y-130835000D01*
X226250000Y-130835000D02*
X226250000Y-131635000D01*
X226250000Y-131235000D02*
X226750000Y-131235000D01*
X226250000Y-131635000D02*
X225650000Y-131235000D01*
%TO.C,D1*%
X149250000Y-156000000D02*
X149650000Y-156000000D01*
X149650000Y-156000000D02*
X149650000Y-155450000D01*
X149650000Y-156000000D02*
X149650000Y-156550000D01*
X149650000Y-156000000D02*
X150250000Y-155600000D01*
X150250000Y-155600000D02*
X150250000Y-156400000D01*
X150250000Y-156000000D02*
X150750000Y-156000000D01*
X150250000Y-156400000D02*
X149650000Y-156000000D01*
%TD*%
D13*
%TO.C,MCU1*%
X256379999Y-114622499D03*
D14*
X256380000Y-117162500D03*
X256380000Y-119702500D03*
X256380000Y-122242500D03*
X256380000Y-124782500D03*
X256380000Y-127322500D03*
X256380000Y-129862500D03*
X256380000Y-132402500D03*
X256380000Y-134942500D03*
X256380000Y-137482500D03*
X256380000Y-140022500D03*
X256380000Y-142562500D03*
X271620000Y-114622500D03*
X271620000Y-117162500D03*
X271620000Y-119702500D03*
X271620000Y-122242500D03*
X271620000Y-124782500D03*
X271620000Y-127322500D03*
X271620000Y-129862500D03*
X271620000Y-132402500D03*
X271620000Y-134942500D03*
X271620000Y-137482500D03*
X271620000Y-140022500D03*
X271620000Y-142562500D03*
%TD*%
M02*
