%TF.GenerationSoftware,KiCad,Pcbnew,(7.0.0-0)*%
%TF.CreationDate,2023-06-05T18:59:04+10:00*%
%TF.ProjectId,trone,74726f6e-652e-46b6-9963-61645f706362,v1.0.0*%
%TF.SameCoordinates,Original*%
%TF.FileFunction,Paste,Bot*%
%TF.FilePolarity,Positive*%
%FSLAX46Y46*%
G04 Gerber Fmt 4.6, Leading zero omitted, Abs format (unit mm)*
G04 Created by KiCad (PCBNEW (7.0.0-0)) date 2023-06-05 18:59:04*
%MOMM*%
%LPD*%
G01*
G04 APERTURE LIST*
G04 Aperture macros list*
%AMRotRect*
0 Rectangle, with rotation*
0 The origin of the aperture is its center*
0 $1 length*
0 $2 width*
0 $3 Rotation angle, in degrees counterclockwise*
0 Add horizontal line*
21,1,$1,$2,0,0,$3*%
G04 Aperture macros list end*
%ADD10RotRect,0.900000X1.200000X10.000000*%
%ADD11R,0.900000X1.200000*%
%ADD12RotRect,0.900000X1.200000X335.000000*%
G04 APERTURE END LIST*
D10*
%TO.C,D18*%
X215718307Y-175210557D03*
X218968173Y-174637519D03*
%TD*%
D11*
%TO.C,D15*%
X243349999Y-153092499D03*
X246649999Y-153092499D03*
%TD*%
%TO.C,D16*%
X243349999Y-134092499D03*
X246649999Y-134092499D03*
%TD*%
%TO.C,D4*%
X167349999Y-144569999D03*
X170649999Y-144569999D03*
%TD*%
%TO.C,D7*%
X186349999Y-131234999D03*
X189649999Y-131234999D03*
%TD*%
%TO.C,D5*%
X167349999Y-125569999D03*
X170649999Y-125569999D03*
%TD*%
%TO.C,D6*%
X186349999Y-150234999D03*
X189649999Y-150234999D03*
%TD*%
%TO.C,D8*%
X186349999Y-112234999D03*
X189649999Y-112234999D03*
%TD*%
%TO.C,D3*%
X167349999Y-163569999D03*
X170649999Y-163569999D03*
%TD*%
D12*
%TO.C,D20*%
X258673546Y-172103233D03*
X261664362Y-173497873D03*
%TD*%
D11*
%TO.C,D10*%
X205349999Y-126472499D03*
X208649999Y-126472499D03*
%TD*%
%TO.C,D11*%
X205349999Y-107472499D03*
X208649999Y-107472499D03*
%TD*%
%TO.C,D9*%
X205349999Y-145472499D03*
X208649999Y-145472499D03*
%TD*%
%TO.C,D17*%
X243349999Y-115092499D03*
X246649999Y-115092499D03*
%TD*%
%TO.C,D14*%
X224349999Y-112234999D03*
X227649999Y-112234999D03*
%TD*%
%TO.C,D19*%
X236036346Y-173200684D03*
X239336346Y-173200684D03*
%TD*%
%TO.C,D2*%
X148349999Y-136999999D03*
X151649999Y-136999999D03*
%TD*%
%TO.C,D12*%
X224349999Y-150234999D03*
X227649999Y-150234999D03*
%TD*%
%TO.C,D13*%
X224349999Y-131234999D03*
X227649999Y-131234999D03*
%TD*%
%TO.C,D1*%
X148349999Y-155999999D03*
X151649999Y-155999999D03*
%TD*%
M02*
