0
SECTION
2
HEADER
9
$INSUNITS
70
4
0
ENDSEC
0
SECTION
2
TABLES
0
TABLE
2
LTYPE
0
LTYPE
72
65
70
64
2
CONTINUOUS
3
______
73
0
40
0
0
ENDTAB
0
TABLE
2
LAYER
0
ENDTAB
0
ENDSEC
0
SECTION
2
ENTITIES
0
LINE
8
0
10
142.95
20
-158.05
11
157.05
21
-158.05
0
LINE
8
0
10
157.05
20
-158.05
11
157.05
21
-143.95
0
LINE
8
0
10
157.05
20
-143.95
11
142.95
21
-143.95
0
LINE
8
0
10
142.95
20
-143.95
11
142.95
21
-158.05
0
LINE
8
0
10
142.95
20
-139.05
11
157.05
21
-139.05
0
LINE
8
0
10
157.05
20
-139.05
11
157.05
21
-124.95
0
LINE
8
0
10
157.05
20
-124.95
11
142.95
21
-124.95
0
LINE
8
0
10
142.95
20
-124.95
11
142.95
21
-139.05
0
LINE
8
0
10
161.95
20
-165.62
11
176.05
21
-165.62
0
LINE
8
0
10
176.05
20
-165.62
11
176.05
21
-151.52
0
LINE
8
0
10
176.05
20
-151.52
11
161.95
21
-151.52
0
LINE
8
0
10
161.95
20
-151.52
11
161.95
21
-165.62
0
LINE
8
0
10
161.95
20
-146.62
11
176.05
21
-146.62
0
LINE
8
0
10
176.05
20
-146.62
11
176.05
21
-132.52
0
LINE
8
0
10
176.05
20
-132.52
11
161.95
21
-132.52
0
LINE
8
0
10
161.95
20
-132.52
11
161.95
21
-146.62
0
LINE
8
0
10
161.95
20
-127.62
11
176.05
21
-127.62
0
LINE
8
0
10
176.05
20
-127.62
11
176.05
21
-113.52
0
LINE
8
0
10
176.05
20
-113.52
11
161.95
21
-113.52
0
LINE
8
0
10
161.95
20
-113.52
11
161.95
21
-127.62
0
LINE
8
0
10
180.95
20
-152.285
11
195.05
21
-152.285
0
LINE
8
0
10
195.05
20
-152.285
11
195.05
21
-138.185
0
LINE
8
0
10
195.05
20
-138.185
11
180.95
21
-138.185
0
LINE
8
0
10
180.95
20
-138.185
11
180.95
21
-152.285
0
LINE
8
0
10
180.95
20
-133.285
11
195.05
21
-133.285
0
LINE
8
0
10
195.05
20
-133.285
11
195.05
21
-119.185
0
LINE
8
0
10
195.05
20
-119.185
11
180.95
21
-119.185
0
LINE
8
0
10
180.95
20
-119.185
11
180.95
21
-133.285
0
LINE
8
0
10
180.95
20
-114.285
11
195.05
21
-114.285
0
LINE
8
0
10
195.05
20
-114.285
11
195.05
21
-100.185
0
LINE
8
0
10
195.05
20
-100.185
11
180.95
21
-100.185
0
LINE
8
0
10
180.95
20
-100.185
11
180.95
21
-114.285
0
LINE
8
0
10
199.95
20
-147.5225
11
214.05
21
-147.5225
0
LINE
8
0
10
214.05
20
-147.5225
11
214.05
21
-133.4225
0
LINE
8
0
10
214.05
20
-133.4225
11
199.95
21
-133.4225
0
LINE
8
0
10
199.95
20
-133.4225
11
199.95
21
-147.5225
0
LINE
8
0
10
199.95
20
-128.5225
11
214.05
21
-128.5225
0
LINE
8
0
10
214.05
20
-128.5225
11
214.05
21
-114.4225
0
LINE
8
0
10
214.05
20
-114.4225
11
199.95
21
-114.4225
0
LINE
8
0
10
199.95
20
-114.4225
11
199.95
21
-128.5225
0
LINE
8
0
10
199.95
20
-109.5225
11
214.05
21
-109.5225
0
LINE
8
0
10
214.05
20
-109.5225
11
214.05
21
-95.4225
0
LINE
8
0
10
214.05
20
-95.4225
11
199.95
21
-95.4225
0
LINE
8
0
10
199.95
20
-95.4225
11
199.95
21
-109.5225
0
LINE
8
0
10
218.95
20
-152.285
11
233.05
21
-152.285
0
LINE
8
0
10
233.05
20
-152.285
11
233.05
21
-138.185
0
LINE
8
0
10
233.05
20
-138.185
11
218.95
21
-138.185
0
LINE
8
0
10
218.95
20
-138.185
11
218.95
21
-152.285
0
LINE
8
0
10
218.95
20
-133.285
11
233.05
21
-133.285
0
LINE
8
0
10
233.05
20
-133.285
11
233.05
21
-119.185
0
LINE
8
0
10
233.05
20
-119.185
11
218.95
21
-119.185
0
LINE
8
0
10
218.95
20
-119.185
11
218.95
21
-133.285
0
LINE
8
0
10
218.95
20
-114.285
11
233.05
21
-114.285
0
LINE
8
0
10
233.05
20
-114.285
11
233.05
21
-100.185
0
LINE
8
0
10
233.05
20
-100.185
11
218.95
21
-100.185
0
LINE
8
0
10
218.95
20
-100.185
11
218.95
21
-114.285
0
LINE
8
0
10
237.95
20
-155.1425
11
252.05
21
-155.1425
0
LINE
8
0
10
252.05
20
-155.1425
11
252.05
21
-141.0425
0
LINE
8
0
10
252.05
20
-141.0425
11
237.95
21
-141.0425
0
LINE
8
0
10
237.95
20
-141.0425
11
237.95
21
-155.1425
0
LINE
8
0
10
237.95
20
-136.1425
11
252.05
21
-136.1425
0
LINE
8
0
10
252.05
20
-136.1425
11
252.05
21
-122.0425
0
LINE
8
0
10
252.05
20
-122.0425
11
237.95
21
-122.0425
0
LINE
8
0
10
237.95
20
-122.0425
11
237.95
21
-136.1425
0
LINE
8
0
10
237.95
20
-117.1425
11
252.05
21
-117.1425
0
LINE
8
0
10
252.05
20
-117.1425
11
252.05
21
-103.0425
0
LINE
8
0
10
252.05
20
-103.0425
11
237.95
21
-103.0425
0
LINE
8
0
10
237.95
20
-103.0425
11
237.95
21
-117.1425
0
LINE
8
0
10
210.756325
20
-176.2621143
11
224.6421143
21
-173.813675
0
LINE
8
0
10
224.6421143
20
-173.813675
11
222.193675
21
-159.9278857
0
LINE
8
0
10
222.193675
20
-159.9278857
11
208.3078857
21
-162.376325
0
LINE
8
0
10
208.3078857
20
-162.376325
11
210.756325
21
-176.2621143
0
LINE
8
0
10
230.6363473
20
-174.1456846
11
244.7363473
21
-174.1456846
0
LINE
8
0
10
244.7363473
20
-174.1456846
11
244.7363473
21
-160.0456846
0
LINE
8
0
10
244.7363473
20
-160.0456846
11
230.6363473
21
-160.0456846
0
LINE
8
0
10
230.6363473
20
-160.0456846
11
230.6363473
21
-174.1456846
0
LINE
8
0
10
252.9131175
20
-169.7740263
11
265.6920573
21
-175.7329437
0
LINE
8
0
10
265.6920573
20
-175.7329437
11
271.6509747
21
-162.9540039
0
LINE
8
0
10
271.6509747
20
-162.9540039
11
258.8720349
21
-156.9950865
0
LINE
8
0
10
258.8720349
20
-156.9950865
11
252.9131175
21
-169.7740263
0
ENDSEC
0
EOF