0
SECTION
2
HEADER
9
$INSUNITS
70
4
0
ENDSEC
0
SECTION
2
TABLES
0
TABLE
2
LTYPE
0
LTYPE
72
65
70
64
2
CONTINUOUS
3
______
73
0
40
0
0
ENDTAB
0
TABLE
2
LAYER
0
ENDTAB
0
ENDSEC
0
SECTION
2
ENTITIES
0
LINE
8
0
10
141
20
-161
11
159
21
-161
0
ARC
8
0
10
141
20
-142
40
1
50
149.9999999
51
180
0
LINE
8
0
10
140
20
-142
11
140
21
-160
0
ARC
8
0
10
141
20
-160
40
1
50
180
51
270
0
LINE
8
0
10
159
20
-122
11
141
21
-122
0
ARC
8
0
10
141
20
-123
40
1
50
90
51
180
0
LINE
8
0
10
140
20
-123
11
140
21
-141
0
ARC
8
0
10
141
20
-141
40
1
50
180
51
210.0000001
0
LINE
8
0
10
160
20
-168.57
11
178
21
-168.57
0
ARC
8
0
10
178
20
-167.57
40
1
50
270
51
360
0
LINE
8
0
10
179
20
-167.57
11
179
21
-155.235
0
LINE
8
0
10
159
20
-161
11
159
21
-167.57
0
ARC
8
0
10
160
20
-167.57
40
1
50
180
51
270
0
LINE
8
0
10
178
20
-110.57
11
160
21
-110.57
0
ARC
8
0
10
160
20
-111.57
40
1
50
90
51
180
0
LINE
8
0
10
159
20
-111.57
11
159
21
-122
0
LINE
8
0
10
179
20
-155.235
11
197
21
-155.235
0
ARC
8
0
10
197
20
-154.235
40
1
50
270
51
360
0
LINE
8
0
10
198
20
-154.235
11
198
21
-150.4725
0
LINE
8
0
10
197
20
-97.235
11
179
21
-97.235
0
ARC
8
0
10
179
20
-98.235
40
1
50
90
51
180
0
LINE
8
0
10
178
20
-98.235
11
178
21
-110.57
0
LINE
8
0
10
198
20
-150.4725
11
216
21
-150.4725
0
LINE
8
0
10
217
20
-97.235
11
217
21
-93.4725
0
ARC
8
0
10
216
20
-93.4725
40
1
50
0
51
90
0
LINE
8
0
10
216
20
-92.4725
11
198
21
-92.4725
0
ARC
8
0
10
198
20
-93.4725
40
1
50
90
51
180
0
LINE
8
0
10
197
20
-93.4725
11
197
21
-97.235
0
LINE
8
0
10
217
20
-155.235
11
235
21
-155.235
0
LINE
8
0
10
216
20
-150.4725
11
216
21
-154.235
0
ARC
8
0
10
217
20
-154.235
40
1
50
180
51
270
0
LINE
8
0
10
236
20
-100.0925
11
236
21
-98.235
0
ARC
8
0
10
235
20
-98.235
40
1
50
0
51
90
0
LINE
8
0
10
235
20
-97.235
11
217
21
-97.235
0
LINE
8
0
10
247.6863422
20
-158.0925
11
254
21
-158.0925
0
ARC
8
0
10
254
20
-157.0925
40
1
50
270
51
360
0
LINE
8
0
10
255
20
-157.0925
11
255
21
-139.0925
0
ARC
8
0
10
254
20
-139.0925
40
1
50
0
51
30.0000001
0
LINE
8
0
10
235
20
-155.235
11
235
21
-157.0925
0
ARC
8
0
10
236
20
-157.0925
40
1
50
180
51
180.1824645
0
ARC
8
0
10
254
20
-138.0925
40
1
50
329.9999999
51
360
0
LINE
8
0
10
255
20
-138.0925
11
255
21
-120.0925
0
ARC
8
0
10
254
20
-120.0925
40
1
50
0
51
30.0000001
0
ARC
8
0
10
254
20
-119.0925
40
1
50
329.9999999
51
360
0
LINE
8
0
10
255
20
-119.0925
11
255
21
-101.0925
0
ARC
8
0
10
254
20
-101.0925
40
1
50
0
51
90
0
LINE
8
0
10
254
20
-100.0925
11
236
21
-100.0925
0
LINE
8
0
10
209.348212
20
-179.5059111
11
227.0747516
21
-176.3802439
0
ARC
8
0
10
226.9011034
20
-175.3954362
40
1
50
280
51
321.7432406
0
LINE
8
0
10
227.6863473
20
-174.0900054
11
224.7602439
21
-157.4952484
0
ARC
8
0
10
223.7754362
20
-157.6688966
40
1
50
10
51
100
0
LINE
8
0
10
223.601788
20
-156.6840889
11
205.8752484
21
-159.8097561
0
ARC
8
0
10
206.0488966
20
-160.7945638
40
1
50
100
51
190
0
LINE
8
0
10
205.0640889
20
-160.968212
11
208.1897561
21
-178.6947516
0
ARC
8
0
10
209.1745638
20
-178.5211034
40
1
50
190
51
280
0
LINE
8
0
10
228.6863473
20
-177.0956846
11
246.6863473
21
-177.0956846
0
ARC
8
0
10
246.6863473
20
-176.0956846
40
1
50
270
51
360
0
LINE
8
0
10
247.6863473
20
-176.0956846
11
247.6863473
21
-158.0956846
0
ARC
8
0
10
246.6863473
20
-158.0956846
40
1
50
0
51
0.1824645
0
LINE
8
0
10
235.0000051
20
-157.0956846
11
228.6863473
21
-157.0956846
0
ARC
8
0
10
228.6863473
20
-158.0956846
40
1
50
90
51
180
0
LINE
8
0
10
227.6863473
20
-158.0956846
11
227.6863473
21
-174.0900054
0
LINE
8
0
10
227.6863473
20
-176.0146228
11
227.6863473
21
-176.0956846
0
ARC
8
0
10
228.6863473
20
-176.0956846
40
1
50
180
51
270
0
LINE
8
0
10
249.8990934
20
-171.6235286
11
266.2126336
21
-179.2306573
0
ARC
8
0
10
266.6352518
20
-178.3243495
40
1
50
245
51
335
0
LINE
8
0
10
267.5415596
20
-178.7469678
11
275.1486883
21
-162.4334276
0
ARC
8
0
10
274.2423805
20
-162.0108094
40
1
50
335
51
65
0
LINE
8
0
10
274.6649988
20
-161.1045016
11
258.3514586
21
-153.4973729
0
ARC
8
0
10
257.9288404
20
-154.4036807
40
1
50
65
51
155
0
LINE
8
0
10
257.0225326
20
-153.9810624
11
249.4154039
21
-170.2946026
0
ARC
8
0
10
250.3217117
20
-170.7172208
40
1
50
155
51
245
0
ENDSEC
0
EOF