0
SECTION
2
HEADER
9
$INSUNITS
70
4
0
ENDSEC
0
SECTION
2
TABLES
0
TABLE
2
LTYPE
0
LTYPE
72
65
70
64
2
CONTINUOUS
3
______
73
0
40
0
0
ENDTAB
0
TABLE
2
LAYER
0
ENDTAB
0
ENDSEC
0
SECTION
2
ENTITIES
0
LINE
8
0
10
141
20
-161
11
159
21
-161
0
ARC
8
0
10
141
20
-142
40
1
50
149.9999999
51
180
0
LINE
8
0
10
140
20
-142
11
140
21
-160
0
ARC
8
0
10
141
20
-160
40
1
50
180
51
270
0
LINE
8
0
10
159
20
-122
11
141
21
-122
0
ARC
8
0
10
141
20
-123
40
1
50
90
51
180
0
LINE
8
0
10
140
20
-123
11
140
21
-141
0
ARC
8
0
10
141
20
-141
40
1
50
180
51
210.0000001
0
LINE
8
0
10
160
20
-168.57
11
178
21
-168.57
0
ARC
8
0
10
178
20
-167.57
40
1
50
270
51
360
0
LINE
8
0
10
179
20
-167.57
11
179
21
-155.235
0
LINE
8
0
10
159
20
-161
11
159
21
-167.57
0
ARC
8
0
10
160
20
-167.57
40
1
50
180
51
270
0
LINE
8
0
10
178
20
-110.57
11
160
21
-110.57
0
ARC
8
0
10
160
20
-111.57
40
1
50
90
51
180
0
LINE
8
0
10
159
20
-111.57
11
159
21
-122
0
LINE
8
0
10
179
20
-155.235
11
197
21
-155.235
0
ARC
8
0
10
197
20
-154.235
40
1
50
270
51
360
0
LINE
8
0
10
198
20
-154.235
11
198
21
-150.4725
0
LINE
8
0
10
197
20
-97.235
11
179
21
-97.235
0
ARC
8
0
10
179
20
-98.235
40
1
50
90
51
180
0
LINE
8
0
10
178
20
-98.235
11
178
21
-110.57
0
LINE
8
0
10
198
20
-150.4725
11
216
21
-150.4725
0
LINE
8
0
10
217
20
-97.235
11
217
21
-93.4725
0
ARC
8
0
10
216
20
-93.4725
40
1
50
0
51
90
0
LINE
8
0
10
216
20
-92.4725
11
198
21
-92.4725
0
ARC
8
0
10
198
20
-93.4725
40
1
50
90
51
180
0
LINE
8
0
10
197
20
-93.4725
11
197
21
-97.235
0
LINE
8
0
10
217
20
-155.235
11
235
21
-155.235
0
LINE
8
0
10
216
20
-150.4725
11
216
21
-154.235
0
ARC
8
0
10
217
20
-154.235
40
1
50
180
51
270
0
LINE
8
0
10
236
20
-100.0925
11
236
21
-98.235
0
ARC
8
0
10
235
20
-98.235
40
1
50
0
51
90
0
LINE
8
0
10
235
20
-97.235
11
217
21
-97.235
0
LINE
8
0
10
236
20
-158.0925
11
254
21
-158.0925
0
ARC
8
0
10
254
20
-157.0925
40
1
50
270
51
360
0
LINE
8
0
10
255
20
-157.0925
11
255
21
-139.0925
0
ARC
8
0
10
254
20
-139.0925
40
1
50
0
51
30.0000001
0
LINE
8
0
10
235
20
-155.235
11
235
21
-157.0925
0
ARC
8
0
10
236
20
-157.0925
40
1
50
180
51
270
0
ARC
8
0
10
254
20
-138.0925
40
1
50
329.9999999
51
360
0
LINE
8
0
10
255
20
-138.0925
11
255
21
-120.0925
0
ARC
8
0
10
254
20
-120.0925
40
1
50
0
51
30.0000001
0
ARC
8
0
10
254
20
-119.0925
40
1
50
329.9999999
51
360
0
LINE
8
0
10
255
20
-119.0925
11
255
21
-101.0925
0
ARC
8
0
10
254
20
-101.0925
40
1
50
0
51
90
0
LINE
8
0
10
254
20
-100.0925
11
236
21
-100.0925
0
LINE
8
0
10
209.348212
20
-181.4109111
11
227.0747516
21
-178.2852439
0
ARC
8
0
10
226.9011034
20
-177.3004362
40
1
50
280
51
336.580208
0
LINE
8
0
10
227.6863473
20
-175.9950054
11
224.7602439
21
-159.4002484
0
ARC
8
0
10
223.7754362
20
-159.5738966
40
1
50
10
51
100
0
LINE
8
0
10
223.601788
20
-158.5890889
11
205.8752484
21
-161.7147561
0
ARC
8
0
10
206.0488966
20
-162.6995638
40
1
50
100
51
190
0
LINE
8
0
10
205.0640889
20
-162.873212
11
208.1897561
21
-180.5997516
0
ARC
8
0
10
209.1745638
20
-180.4261034
40
1
50
190
51
280
0
LINE
8
0
10
228.6863473
20
-178.2006846
11
246.6863473
21
-178.2006846
0
ARC
8
0
10
246.6863473
20
-177.2006846
40
1
50
270
51
360
0
LINE
8
0
10
247.6863473
20
-177.2006846
11
247.6863473
21
-159.2006846
0
ARC
8
0
10
246.6863473
20
-159.2006846
40
1
50
0
51
90
0
LINE
8
0
10
246.6863473
20
-158.2006846
11
228.6863473
21
-158.2006846
0
ARC
8
0
10
228.6863473
20
-159.2006846
40
1
50
90
51
180
0
LINE
8
0
10
227.6863473
20
-159.2006846
11
227.6863473
21
-175.9950054
0
ARC
8
0
10
228.6863473
20
-177.2006846
40
1
50
209.8160155
51
270
0
LINE
8
0
10
249.8990934
20
-173.5285286
11
266.2126336
21
-181.1356573
0
ARC
8
0
10
266.6352518
20
-180.2293495
40
1
50
245
51
335
0
LINE
8
0
10
267.5415596
20
-180.6519678
11
275.1486883
21
-164.3384276
0
ARC
8
0
10
274.2423805
20
-163.9158094
40
1
50
335
51
65
0
LINE
8
0
10
274.6649988
20
-163.0095016
11
258.3514586
21
-155.4023729
0
ARC
8
0
10
257.9288404
20
-156.3086807
40
1
50
65
51
155
0
LINE
8
0
10
257.0225326
20
-155.8860624
11
249.4154039
21
-172.1996026
0
ARC
8
0
10
250.3217117
20
-172.6222208
40
1
50
155
51
245
0
ENDSEC
0
EOF