0
SECTION
2
HEADER
9
$INSUNITS
70
4
0
ENDSEC
0
SECTION
2
TABLES
0
TABLE
2
LTYPE
0
LTYPE
72
65
70
64
2
CONTINUOUS
3
______
73
0
40
0
0
ENDTAB
0
TABLE
2
LAYER
0
ENDTAB
0
ENDSEC
0
SECTION
2
ENTITIES
0
LINE
8
0
10
141
20
-161
11
159
21
-161
0
ARC
8
0
10
141
20
-142
40
1
50
149.9999999
51
180
0
LINE
8
0
10
140
20
-142
11
140
21
-160
0
ARC
8
0
10
141
20
-160
40
1
50
180
51
270
0
LINE
8
0
10
159
20
-122
11
141
21
-122
0
ARC
8
0
10
141
20
-123
40
1
50
90
51
180
0
LINE
8
0
10
140
20
-123
11
140
21
-141
0
ARC
8
0
10
141
20
-141
40
1
50
180
51
210.0000001
0
LINE
8
0
10
160
20
-168.57
11
177.9997656
21
-168.57
0
ARC
8
0
10
178
20
-167.57
40
1
50
271.4653388
51
275.5924528
0
LINE
8
0
10
159
20
-161
11
159
21
-167.57
0
ARC
8
0
10
160
20
-167.57
40
1
50
180
51
270
0
LINE
8
0
10
178
20
-110.57
11
160
21
-110.57
0
ARC
8
0
10
160
20
-111.57
40
1
50
90
51
180
0
LINE
8
0
10
159
20
-111.57
11
159
21
-122
0
LINE
8
0
10
197
20
-97.235
11
179
21
-97.235
0
ARC
8
0
10
179
20
-98.235
40
1
50
90
51
180
0
LINE
8
0
10
178
20
-98.235
11
178
21
-110.57
0
LINE
8
0
10
217
20
-97.235
11
217
21
-93.4725
0
ARC
8
0
10
216
20
-93.4725
40
1
50
0
51
90
0
LINE
8
0
10
216
20
-92.4725
11
198
21
-92.4725
0
ARC
8
0
10
198
20
-93.4725
40
1
50
90
51
180
0
LINE
8
0
10
197
20
-93.4725
11
197
21
-97.235
0
LINE
8
0
10
236
20
-100.0925
11
236
21
-98.235
0
ARC
8
0
10
235
20
-98.235
40
1
50
0
51
90
0
LINE
8
0
10
235
20
-97.235
11
217
21
-97.235
0
LINE
8
0
10
255
20
-103.6155
11
255
21
-101.0925
0
ARC
8
0
10
254
20
-101.0925
40
1
50
0
51
90
0
LINE
8
0
10
254
20
-100.0925
11
236
21
-100.0925
0
LINE
8
0
10
209.348212
20
-179.5059111
11
221.7656566
21
-177.3163806
0
LINE
8
0
10
206.0991627
20
-166.8384071
11
208.1897561
21
-178.6947516
0
ARC
8
0
10
209.1745638
20
-178.5211034
40
1
50
190
51
280
0
LINE
8
0
10
228.6863473
20
-177.0956846
11
243.3084855
21
-177.0956846
0
ARC
8
0
10
228.6863473
20
-176.0956846
40
1
50
249.0514061
51
270
0
LINE
8
0
10
265.6891933
20
-178.9865731
11
266.2126336
21
-179.2306573
0
ARC
8
0
10
266.6352518
20
-178.3243495
40
1
50
245
51
335
0
LINE
8
0
10
267.5415596
20
-178.7469678
11
275.1486883
21
-162.4334276
0
ARC
8
0
10
274.2423805
20
-162.0108094
40
1
50
335
51
65
0
LINE
8
0
10
274.6649988
20
-161.1045016
11
273.575
21
-160.5962268
0
LINE
8
0
10
255
20
-103.6155
11
273.575
21
-103.6155
0
LINE
8
0
10
273.575
20
-103.6155
11
273.575
21
-160.5962268
0
LINE
8
0
10
265.6891933
20
-178.9865731
11
243.3084855
21
-177.0956846
0
LINE
8
0
10
228.3288171
20
-177.0295862
11
221.7656566
21
-177.3163806
0
LINE
8
0
10
178.0255722
20
-168.569673
11
178
21
-168.57125
0
LINE
8
0
10
206.0991627
20
-166.8384071
11
178.0974518
21
-168.5652402
0
LINE
8
0
10
178
20
-168.57125
11
177.9997656
21
-168.57
0
LINE
8
0
10
233.55
20
-120.11375
11
237.45
21
-120.11375
0
LINE
8
0
10
237.45
20
-120.11375
11
237.45
21
-116.21375
0
LINE
8
0
10
237.45
20
-116.21375
11
233.55
21
-116.21375
0
LINE
8
0
10
233.55
20
-116.21375
11
233.55
21
-120.11375
0
CIRCLE
8
0
10
246
20
-118.16375
40
1.35
0
CIRCLE
8
0
10
225
20
-118.16375
40
1.35
0
LINE
8
0
10
233.55
20
-139.11375
11
237.45
21
-139.11375
0
LINE
8
0
10
237.45
20
-139.11375
11
237.45
21
-135.21375
0
LINE
8
0
10
237.45
20
-135.21375
11
233.55
21
-135.21375
0
LINE
8
0
10
233.55
20
-135.21375
11
233.55
21
-139.11375
0
CIRCLE
8
0
10
246
20
-137.16375
40
1.35
0
CIRCLE
8
0
10
225
20
-137.16375
40
1.35
0
ENDSEC
0
EOF