0
SECTION
2
HEADER
9
$INSUNITS
70
4
0
ENDSEC
0
SECTION
2
TABLES
0
TABLE
2
LTYPE
0
LTYPE
72
65
70
64
2
CONTINUOUS
3
______
73
0
40
0
0
ENDTAB
0
TABLE
2
LAYER
0
ENDTAB
0
ENDSEC
0
SECTION
2
ENTITIES
0
LINE
8
0
10
141
20
-161
11
159
21
-161
0
ARC
8
0
10
141
20
-142
40
1
50
149.9999999
51
180
0
LINE
8
0
10
140
20
-142
11
140
21
-160
0
ARC
8
0
10
141
20
-160
40
1
50
180
51
270
0
LINE
8
0
10
159
20
-122
11
141
21
-122
0
ARC
8
0
10
141
20
-123
40
1
50
90
51
180
0
LINE
8
0
10
140
20
-123
11
140
21
-141
0
ARC
8
0
10
141
20
-141
40
1
50
180
51
210.0000001
0
LINE
8
0
10
160
20
-168.57
11
169
21
-168.57
0
LINE
8
0
10
177.3851102
20
-168.57
11
178
21
-168.57
0
ARC
8
0
10
178
20
-167.57
40
1
50
270
51
277.5112816
0
LINE
8
0
10
159
20
-161
11
159
21
-167.57
0
ARC
8
0
10
160
20
-167.57
40
1
50
180
51
270
0
LINE
8
0
10
178
20
-110.57
11
160
21
-110.57
0
ARC
8
0
10
160
20
-111.57
40
1
50
90
51
180
0
LINE
8
0
10
159
20
-111.57
11
159
21
-122
0
LINE
8
0
10
197
20
-97.235
11
179
21
-97.235
0
ARC
8
0
10
179
20
-98.235
40
1
50
90
51
180
0
LINE
8
0
10
178
20
-98.235
11
178
21
-110.57
0
LINE
8
0
10
217
20
-97.235
11
217
21
-93.4725
0
ARC
8
0
10
216
20
-93.4725
40
1
50
0
51
90
0
LINE
8
0
10
216
20
-92.4725
11
198
21
-92.4725
0
ARC
8
0
10
198
20
-93.4725
40
1
50
90
51
180
0
LINE
8
0
10
197
20
-93.4725
11
197
21
-97.235
0
LINE
8
0
10
236
20
-100.0925
11
236
21
-98.235
0
ARC
8
0
10
235
20
-98.235
40
1
50
0
51
90
0
LINE
8
0
10
235
20
-97.235
11
217
21
-97.235
0
LINE
8
0
10
255
20
-110.0925
11
255
21
-101.0925
0
ARC
8
0
10
254
20
-101.0925
40
1
50
0
51
90
0
LINE
8
0
10
254
20
-100.0925
11
236
21
-100.0925
0
LINE
8
0
10
209.348212
20
-181.4109111
11
223.387464
21
-178.9354122
0
LINE
8
0
10
206.010498
20
-168.2405649
11
208.1897561
21
-180.5997516
0
ARC
8
0
10
209.1745638
20
-180.4261034
40
1
50
190
51
280
0
LINE
8
0
10
232.0718853
20
-178.2006846
11
242.0193146
21
-178.2006846
0
LINE
8
0
10
265.4198044
20
-180.765955
11
266.2126336
21
-181.1356573
0
ARC
8
0
10
266.6352518
20
-180.2293495
40
1
50
245
51
335
0
LINE
8
0
10
267.5415596
20
-180.6519678
11
275.1486883
21
-164.3384276
0
ARC
8
0
10
274.2423805
20
-163.9158094
40
1
50
335
51
65
0
LINE
8
0
10
274.6649988
20
-163.0095016
11
273.575
21
-162.5012268
0
LINE
8
0
10
255
20
-110.0925
11
273.575
21
-110.0925
0
LINE
8
0
10
273.575
20
-110.0925
11
273.575
21
-162.5012268
0
LINE
8
0
10
265.4198044
20
-180.765955
11
242.0193146
21
-178.2006846
0
LINE
8
0
10
232.0718853
20
-178.2006846
11
223.387464
21
-178.9354122
0
LINE
8
0
10
177.3851102
20
-168.57
11
169
21
-168.6665
0
LINE
8
0
10
206.010498
20
-168.2405649
11
178.1307214
21
-168.5614191
0
LINE
8
0
10
169
20
-168.6665
11
169
21
-168.57
0
LINE
8
0
10
233.95
20
-119.71375
11
237.05
21
-119.71375
0
LINE
8
0
10
237.05
20
-119.71375
11
237.05
21
-116.61375
0
LINE
8
0
10
237.05
20
-116.61375
11
233.95
21
-116.61375
0
LINE
8
0
10
233.95
20
-116.61375
11
233.95
21
-119.71375
0
CIRCLE
8
0
10
246
20
-118.16375
40
1.5
0
CIRCLE
8
0
10
225
20
-118.16375
40
1.5
0
LINE
8
0
10
224.45
20
-158.215
11
227.55
21
-158.215
0
LINE
8
0
10
227.55
20
-158.215
11
227.55
21
-155.115
0
LINE
8
0
10
227.55
20
-155.115
11
224.45
21
-155.115
0
LINE
8
0
10
224.45
20
-155.115
11
224.45
21
-158.215
0
CIRCLE
8
0
10
236.5
20
-156.665
40
1.5
0
CIRCLE
8
0
10
215.5
20
-156.665
40
1.5
0
LINE
8
0
10
249.546
20
-162.025
11
252.646
21
-162.025
0
LINE
8
0
10
252.646
20
-162.025
11
252.646
21
-158.925
0
LINE
8
0
10
252.646
20
-158.925
11
249.546
21
-158.925
0
LINE
8
0
10
249.546
20
-158.925
11
249.546
21
-162.025
0
CIRCLE
8
0
10
261.596
20
-160.475
40
1.5
0
CIRCLE
8
0
10
240.596
20
-160.475
40
1.5
0
LINE
8
0
10
233.95
20
-138.71375
11
237.05
21
-138.71375
0
LINE
8
0
10
237.05
20
-138.71375
11
237.05
21
-135.61375
0
LINE
8
0
10
237.05
20
-135.61375
11
233.95
21
-135.61375
0
LINE
8
0
10
233.95
20
-135.61375
11
233.95
21
-138.71375
0
CIRCLE
8
0
10
246
20
-137.16375
40
1.5
0
CIRCLE
8
0
10
225
20
-137.16375
40
1.5
0
ENDSEC
0
EOF