0
SECTION
2
HEADER
9
$INSUNITS
70
4
0
ENDSEC
0
SECTION
2
TABLES
0
TABLE
2
LTYPE
0
LTYPE
72
65
70
64
2
CONTINUOUS
3
______
73
0
40
0
0
ENDTAB
0
TABLE
2
LAYER
0
ENDTAB
0
ENDSEC
0
SECTION
2
ENTITIES
0
LINE
8
0
10
141
20
-161
11
159
21
-161
0
ARC
8
0
10
141
20
-142
40
1
50
149.9999999
51
180
0
LINE
8
0
10
140
20
-142
11
140
21
-160
0
ARC
8
0
10
141
20
-160
40
1
50
180
51
270
0
LINE
8
0
10
159
20
-122
11
141
21
-122
0
ARC
8
0
10
141
20
-123
40
1
50
90
51
180
0
LINE
8
0
10
140
20
-123
11
140
21
-141
0
ARC
8
0
10
141
20
-141
40
1
50
180
51
210.0000001
0
LINE
8
0
10
160
20
-168.57
11
178
21
-168.57
0
ARC
8
0
10
178
20
-167.57
40
1
50
270
51
360
0
LINE
8
0
10
179
20
-167.57
11
179
21
-155.235
0
LINE
8
0
10
159
20
-161
11
159
21
-167.57
0
ARC
8
0
10
160
20
-167.57
40
1
50
180
51
270
0
LINE
8
0
10
178
20
-110.57
11
160
21
-110.57
0
ARC
8
0
10
160
20
-111.57
40
1
50
90
51
180
0
LINE
8
0
10
159
20
-111.57
11
159
21
-122
0
LINE
8
0
10
179
20
-155.235
11
197
21
-155.235
0
ARC
8
0
10
197
20
-154.235
40
1
50
270
51
360
0
LINE
8
0
10
198
20
-154.235
11
198
21
-150.4725
0
LINE
8
0
10
197
20
-97.235
11
179
21
-97.235
0
ARC
8
0
10
179
20
-98.235
40
1
50
90
51
180
0
LINE
8
0
10
178
20
-98.235
11
178
21
-110.57
0
LINE
8
0
10
198
20
-150.4725
11
215.7945502
21
-150.4725
0
LINE
8
0
10
217
20
-97.235
11
217
21
-93.4725
0
ARC
8
0
10
216
20
-93.4725
40
1
50
0
51
90
0
LINE
8
0
10
216
20
-92.4725
11
198
21
-92.4725
0
ARC
8
0
10
198
20
-93.4725
40
1
50
90
51
180
0
LINE
8
0
10
197
20
-93.4725
11
197
21
-97.235
0
LINE
8
0
10
236
20
-100.0925
11
236
21
-98.235
0
ARC
8
0
10
235
20
-98.235
40
1
50
0
51
90
0
LINE
8
0
10
235
20
-97.235
11
217
21
-97.235
0
LINE
8
0
10
255
20
-154.0925
11
255
21
-139.0925
0
ARC
8
0
10
254
20
-139.0925
40
1
50
0
51
30.0000001
0
ARC
8
0
10
254
20
-138.0925
40
1
50
329.9999999
51
360
0
LINE
8
0
10
255
20
-138.0925
11
255
21
-120.0925
0
ARC
8
0
10
254
20
-120.0925
40
1
50
0
51
30.0000001
0
ARC
8
0
10
254
20
-119.0925
40
1
50
329.9999999
51
360
0
LINE
8
0
10
255
20
-119.0925
11
255
21
-101.0925
0
ARC
8
0
10
254
20
-101.0925
40
1
50
0
51
90
0
LINE
8
0
10
254
20
-100.0925
11
236
21
-100.0925
0
LINE
8
0
10
209.348212
20
-179.5059111
11
221.7656566
21
-177.3163806
0
LINE
8
0
10
215.9623895
20
-158.031121
11
205.8752484
21
-159.8097561
0
ARC
8
0
10
206.0488966
20
-160.7945638
40
1
50
100
51
190
0
LINE
8
0
10
205.0640889
20
-160.968212
11
208.1897561
21
-178.6947516
0
ARC
8
0
10
209.1745638
20
-178.5211034
40
1
50
190
51
280
0
LINE
8
0
10
228.6863473
20
-177.0956846
11
243.4628244
21
-177.0956846
0
ARC
8
0
10
228.6863473
20
-176.0956846
40
1
50
249.0514061
51
270
0
LINE
8
0
10
265.5246092
20
-178.9098263
11
266.2126336
21
-179.2306573
0
ARC
8
0
10
266.6352518
20
-178.3243495
40
1
50
245
51
335
0
LINE
8
0
10
267.5415596
20
-178.7469678
11
275.1486883
21
-162.4334276
0
ARC
8
0
10
274.2423805
20
-162.0108094
40
1
50
335
51
65
0
LINE
8
0
10
274.6649988
20
-161.1045016
11
263.7149982
21
-155.9984325
0
LINE
8
0
10
261.8010563
20
-155.0925
11
263.7149982
21
-155.9984325
0
LINE
8
0
10
265.5246092
20
-178.9098263
11
243.4628244
21
-177.0956846
0
LINE
8
0
10
228.3288171
20
-177.0295862
11
221.7656566
21
-177.3163806
0
LINE
8
0
10
215.9623895
20
-158.031121
11
215.7945502
21
-150.4725
0
LINE
8
0
10
256
20
-155.0925
11
261.8010563
21
-155.0925
0
ARC
8
0
10
256
20
-154.0925
40
1
50
180
51
270
0
LINE
8
0
10
142.95
20
-158.05
11
157.05
21
-158.05
0
LINE
8
0
10
157.05
20
-158.05
11
157.05
21
-143.95
0
LINE
8
0
10
157.05
20
-143.95
11
142.95
21
-143.95
0
LINE
8
0
10
142.95
20
-143.95
11
142.95
21
-158.05
0
LINE
8
0
10
142.95
20
-139.05
11
157.05
21
-139.05
0
LINE
8
0
10
157.05
20
-139.05
11
157.05
21
-124.95
0
LINE
8
0
10
157.05
20
-124.95
11
142.95
21
-124.95
0
LINE
8
0
10
142.95
20
-124.95
11
142.95
21
-139.05
0
LINE
8
0
10
161.95
20
-165.62
11
176.05
21
-165.62
0
LINE
8
0
10
176.05
20
-165.62
11
176.05
21
-151.52
0
LINE
8
0
10
176.05
20
-151.52
11
161.95
21
-151.52
0
LINE
8
0
10
161.95
20
-151.52
11
161.95
21
-165.62
0
LINE
8
0
10
161.95
20
-146.62
11
176.05
21
-146.62
0
LINE
8
0
10
176.05
20
-146.62
11
176.05
21
-132.52
0
LINE
8
0
10
176.05
20
-132.52
11
161.95
21
-132.52
0
LINE
8
0
10
161.95
20
-132.52
11
161.95
21
-146.62
0
LINE
8
0
10
161.95
20
-127.62
11
176.05
21
-127.62
0
LINE
8
0
10
176.05
20
-127.62
11
176.05
21
-113.52
0
LINE
8
0
10
176.05
20
-113.52
11
161.95
21
-113.52
0
LINE
8
0
10
161.95
20
-113.52
11
161.95
21
-127.62
0
LINE
8
0
10
180.95
20
-152.285
11
195.05
21
-152.285
0
LINE
8
0
10
195.05
20
-152.285
11
195.05
21
-138.185
0
LINE
8
0
10
195.05
20
-138.185
11
180.95
21
-138.185
0
LINE
8
0
10
180.95
20
-138.185
11
180.95
21
-152.285
0
LINE
8
0
10
180.95
20
-133.285
11
195.05
21
-133.285
0
LINE
8
0
10
195.05
20
-133.285
11
195.05
21
-119.185
0
LINE
8
0
10
195.05
20
-119.185
11
180.95
21
-119.185
0
LINE
8
0
10
180.95
20
-119.185
11
180.95
21
-133.285
0
LINE
8
0
10
180.95
20
-114.285
11
195.05
21
-114.285
0
LINE
8
0
10
195.05
20
-114.285
11
195.05
21
-100.185
0
LINE
8
0
10
195.05
20
-100.185
11
180.95
21
-100.185
0
LINE
8
0
10
180.95
20
-100.185
11
180.95
21
-114.285
0
LINE
8
0
10
199.95
20
-147.5225
11
214.05
21
-147.5225
0
LINE
8
0
10
214.05
20
-147.5225
11
214.05
21
-133.4225
0
LINE
8
0
10
214.05
20
-133.4225
11
199.95
21
-133.4225
0
LINE
8
0
10
199.95
20
-133.4225
11
199.95
21
-147.5225
0
LINE
8
0
10
199.95
20
-128.5225
11
214.05
21
-128.5225
0
LINE
8
0
10
214.05
20
-128.5225
11
214.05
21
-114.4225
0
LINE
8
0
10
214.05
20
-114.4225
11
199.95
21
-114.4225
0
LINE
8
0
10
199.95
20
-114.4225
11
199.95
21
-128.5225
0
LINE
8
0
10
199.95
20
-109.5225
11
214.05
21
-109.5225
0
LINE
8
0
10
214.05
20
-109.5225
11
214.05
21
-95.4225
0
LINE
8
0
10
214.05
20
-95.4225
11
199.95
21
-95.4225
0
LINE
8
0
10
199.95
20
-95.4225
11
199.95
21
-109.5225
0
LINE
8
0
10
218.95
20
-152.285
11
233.05
21
-152.285
0
LINE
8
0
10
233.05
20
-152.285
11
233.05
21
-138.185
0
LINE
8
0
10
233.05
20
-138.185
11
218.95
21
-138.185
0
LINE
8
0
10
218.95
20
-138.185
11
218.95
21
-152.285
0
LINE
8
0
10
218.95
20
-133.285
11
233.05
21
-133.285
0
LINE
8
0
10
233.05
20
-133.285
11
233.05
21
-119.185
0
LINE
8
0
10
233.05
20
-119.185
11
218.95
21
-119.185
0
LINE
8
0
10
218.95
20
-119.185
11
218.95
21
-133.285
0
LINE
8
0
10
218.95
20
-114.285
11
233.05
21
-114.285
0
LINE
8
0
10
233.05
20
-114.285
11
233.05
21
-100.185
0
LINE
8
0
10
233.05
20
-100.185
11
218.95
21
-100.185
0
LINE
8
0
10
218.95
20
-100.185
11
218.95
21
-114.285
0
LINE
8
0
10
237.95
20
-155.1425
11
252.05
21
-155.1425
0
LINE
8
0
10
252.05
20
-155.1425
11
252.05
21
-141.0425
0
LINE
8
0
10
252.05
20
-141.0425
11
237.95
21
-141.0425
0
LINE
8
0
10
237.95
20
-141.0425
11
237.95
21
-155.1425
0
LINE
8
0
10
237.95
20
-136.1425
11
252.05
21
-136.1425
0
LINE
8
0
10
252.05
20
-136.1425
11
252.05
21
-122.0425
0
LINE
8
0
10
252.05
20
-122.0425
11
237.95
21
-122.0425
0
LINE
8
0
10
237.95
20
-122.0425
11
237.95
21
-136.1425
0
LINE
8
0
10
237.95
20
-117.1425
11
252.05
21
-117.1425
0
LINE
8
0
10
252.05
20
-117.1425
11
252.05
21
-103.0425
0
LINE
8
0
10
252.05
20
-103.0425
11
237.95
21
-103.0425
0
LINE
8
0
10
237.95
20
-103.0425
11
237.95
21
-117.1425
0
LINE
8
0
10
210.756325
20
-176.2621143
11
224.6421143
21
-173.813675
0
LINE
8
0
10
224.6421143
20
-173.813675
11
222.193675
21
-159.9278857
0
LINE
8
0
10
222.193675
20
-159.9278857
11
208.3078857
21
-162.376325
0
LINE
8
0
10
208.3078857
20
-162.376325
11
210.756325
21
-176.2621143
0
LINE
8
0
10
230.6363473
20
-174.1456846
11
244.7363473
21
-174.1456846
0
LINE
8
0
10
244.7363473
20
-174.1456846
11
244.7363473
21
-160.0456846
0
LINE
8
0
10
244.7363473
20
-160.0456846
11
230.6363473
21
-160.0456846
0
LINE
8
0
10
230.6363473
20
-160.0456846
11
230.6363473
21
-174.1456846
0
LINE
8
0
10
252.9131175
20
-169.7740263
11
265.6920573
21
-175.7329437
0
LINE
8
0
10
265.6920573
20
-175.7329437
11
271.6509747
21
-162.9540039
0
LINE
8
0
10
271.6509747
20
-162.9540039
11
258.8720349
21
-156.9950865
0
LINE
8
0
10
258.8720349
20
-156.9950865
11
252.9131175
21
-169.7740263
0
CIRCLE
8
0
10
235.5
20
-137.16375
40
2
0
CIRCLE
8
0
10
235.5
20
-118.16375
40
2
0
ENDSEC
0
EOF